<?xml version="1.0" encoding="utf-8"?>
<!-- Generator: Adobe Illustrator 23.0.6, SVG Export Plug-In . SVG Version: 6.00 Build 0)  -->
<svg version="1.1" id="Layer_1" xmlns="http://www.w3.org/2000/svg" xmlns:xlink="http://www.w3.org/1999/xlink" x="0px" y="0px"
	 viewBox="0 0 863 285" style="enable-background:new 0 0 863 285;" xml:space="preserve">
<style type="text/css">
	.st0{fill:#00A7BA;}
	.st1{fill:#B02187;}
	.st2{fill:#88C141;}
	.st3{fill:#E82230;}
	.st4{fill:#E51087;}
	.st5{fill:#F4A21E;}
	.st6{fill:#007F8A;}
	.st7{fill:#782776;}
	.st8{fill:#6B9940;}
	.st9{fill:#B62126;}
	.st10{fill:#B51F71;}
	.st11{fill:#EF8022;}
</style>
<g>
	<g>
		<g>
			<path class="st0" d="M817.7,156.1c-0.3-3.8-1-7.6-1.9-11.2c-2-7.6-5.1-14.8-9.3-21.3c-5.4-8.4-12.6-15.7-21-21.2
				c-11.5-7.6-25.2-12-39.9-12c-30.7,0-57,19.1-67.5,46.1c-0.6,1.5-1.1,3.1-1.6,4.7c-1.8,5.9-2.9,12.1-3.2,18.5
				c-0.1,1-0.1,2-0.1,3.1c0,1.6,0.1,3.3,0.2,4.8c0.1,2,0.3,3.9,0.6,5.8c0.9,6.2,2.6,12.1,5,17.7c3.5,8.2,8.5,15.6,14.6,21.9
				c4.8,5,10.4,9.3,16.5,12.7c10.5,5.9,22.6,9.3,35.5,9.3c19.8,0,37.8-8,50.8-20.8c0.2-0.2,0.4-0.4,0.6-0.6c2.9-2.9,5.6-6.1,7.9-9.5
				c3.2-4.6,5.9-9.5,8-14.8c3.2-8.2,5.1-17.2,5.1-26.6C818,160.5,817.9,158.3,817.7,156.1z M755.6,192.9c-3.2,1.1-6.6,1.8-10.2,1.8
				c-8.6,0-16.4-3.6-22-9.4c-0.5-0.5-1-1.1-1.5-1.7c-3.6-4.3-6.1-9.5-7.1-15.3c-0.3-1.8-0.5-3.7-0.5-5.6c0-1.6,0.2-3.2,0.4-4.8
				c1.2-8.5,5.7-15.9,12-20.8c5.2-4,11.6-6.5,18.6-6.5c2.4,0,4.7,0.3,6.9,0.8c7.4,1.7,13.7,6.2,18.1,12.2c3.8,5.3,6,11.8,6,18.9l0,0
				c0,9.2-3.8,17.5-9.9,23.3C763.4,189.1,759.7,191.4,755.6,192.9z"/>
			<polygon class="st1" points="547.2,204.7 547.2,95 517.7,95 517.7,95 504.2,95 504.3,233 547.2,233 547.2,204.7 			"/>
			<path class="st2" d="M671.3,211.3c-2.4-9.7-5-20.1-5-20.1l-1.7,0.6c-10.4,3.5-23.3,4.9-31.4,3.6c-6-1-11.4-2.9-15.6-5.9
				c-2.3-1.3-7.3-6.8-7.5-7.2c-3.6-5.1-5.5-11.5-5.5-19.1c0.1-17.6,10.2-29.1,28.6-32.1c8.1-1.4,21,0.1,31.4,3.6l1.7,0.6
				c0,0,6.1-31.6,7.7-38.4c-10.1-4.3-22.3-6.3-36.5-6.3c-46.6,0.1-78,30.2-78.2,72.4c0,0.3,0,0.3,0,0.3c0.1,6.6,0.9,13,2.4,19
				c0.1,0.4,1.6,5.4,2.3,7.1h-0.1c3.8,10,9.5,18.4,16.9,25.4v0l3.4,3c13.5,11.1,31.8,17.6,53.4,18.1c20.6,0.5,30.2-3.3,38.4-7.1
				C675.1,225.7,673.3,218.8,671.3,211.3z"/>
			<polygon class="st3" points="226.7,216.9 224.4,205.7 217.5,171.3 202,95 154.5,95 136,163.1 117.4,95 71.7,95 55.5,171.4 
				48.2,205.7 45.8,216.9 42.4,233 86.6,233 98.9,171.3 100.8,161.7 111.1,197.3 121.4,233 150.5,233 160.8,197.3 171.2,161.7 
				173.1,171.3 185.3,233 230,233 			"/>
			<g>
				<path class="st4" d="M306.5,172.1h7.5h56.7V167c0-41.6-19.8-69.4-54.8-75.1c-3-0.5-6.1-0.8-9.3-1c-1.5-0.1-3-0.1-4.5-0.1
					c-0.7,0-1.4,0-2.1,0c-4.7,0.1-9.3,0.6-13.6,1.4c-32.5,6.2-54.8,32.2-54.8,71.8c0,20.4,6,36.8,16.1,48.8
					c10.4,12.3,25,20.1,42.1,22.9c5,0.8,10.1,1.3,15.4,1.3c28.6,0,56.7-14.7,63.8-47.1h-42.7c0,0,0,0,0,0
					c-4.8,9-11.5,12.5-20.9,12.5c-0.1,0-0.2,0-0.3,0c-12.3,0-21.1-4.8-25.6-13.9c-0.8-1.5-1.4-3.2-1.9-5c-0.7-2.5-1.2-5.2-1.4-8.1
					c-0.1-1.1-0.1-2.3-0.1-3.5h19.3H306.5z M328.3,144h-30.9h-9.6H277h-0.2c2.1-11.2,9.3-18.2,18.5-20.6c2.5-0.7,5.1-1,7.8-1
					C315.1,122.3,326.1,130.9,328.3,144z"/>
				<polygon class="st4" points="300.1,88.4 303.8,86.4 311.7,82.1 322.2,76.4 345.6,63.7 321.8,33.5 282.5,69 295,82.7 				"/>
			</g>
			<polygon class="st5" points="468.2,187.2 454.6,164.2 468.5,140.5 495.2,95 492.7,95 446.9,95 440.6,107.1 427.7,131.9 
				414.8,107.2 408.5,95 360.1,95 386.9,140.5 400.8,164.2 387.2,187.2 360.2,233.1 408.5,233.1 414.8,221 427.7,196.4 440.6,221 
				447,233 495.3,233 			"/>
			<g>
				<path class="st6" d="M726.8,137.2c5.2-4,11.6-6.5,18.6-6.5c2.4,0,4.7,0.3,6.9,0.8c1.9-0.5,3.8-1,5.7-1.5
					c17.2-4.7,33.2-6.4,48.5-6.5c-5.4-8.4-12.6-15.7-21-21.2c-15.4,1.1-30.9,6.1-49.5,15.6c-22.9,11.7-42.7,16.7-57.9,18.6
					c-0.6,1.5-1.1,3.1-1.6,4.7C689.3,141.7,706,140.9,726.8,137.2z"/>
				<path class="st6" d="M770.4,143.8c3.8,5.3,6,11.8,6,18.9l0,0c11.4-1.6,23.5-3.5,36.4-5.8c1.6-0.3,3.2-0.5,4.8-0.8
					c-0.3-3.8-1-7.6-1.9-11.2C796.3,140.3,782.8,141,770.4,143.8z"/>
				<path class="st6" d="M714.9,168.3c-0.3-1.8-0.5-3.7-0.5-5.6c0-1.6,0.2-3.2,0.4-4.8c-5.5,0.7-11.5,1.2-18.2,1.4
					c-8.7,0.2-16.3,0.3-23.2,0.3c-0.1,1-0.1,2-0.1,3.1c0,1.6,0.1,3.3,0.2,4.8C684.9,168.5,698.6,168.9,714.9,168.3z"/>
				<path class="st6" d="M796.5,214.2c0.2-0.2,0.4-0.4,0.6-0.6c-7.3-2-14.8-4.1-22.4-6.3c-39.2-10.9-55.4-1.7-80.9,5.7
					c4.8,5,10.4,9.3,16.5,12.7c16.4-1.8,34.6-4.4,54.8-8.1C775.9,215.7,786.3,214.7,796.5,214.2z"/>
				<path class="st6" d="M723.4,185.3c-0.5-0.5-1-1.1-1.5-1.7c-6.2-1.8-12.5-3.5-18.9-5.3c-11.3-3.1-20.7-4.6-29-4.9
					c0.9,6.2,2.6,12.1,5,17.7c4.7-0.8,9.4-1.6,14.3-2.5C703.8,186.8,713.7,185.8,723.4,185.3z"/>
				<path class="st6" d="M755.6,192.9c17.5,4.7,33.9,8.6,49.4,11.2c3.2-4.6,5.9-9.5,8-14.8c-15.6-0.6-30.9-2.1-46.4-3.2
					C763.4,189.1,759.7,191.4,755.6,192.9z"/>
			</g>
			<g>
				<polygon class="st7" points="529.6,204.8 517.7,95 504.2,95 504.3,233 547.2,233 547.2,204.7 				"/>
			</g>
			<g>
				<path class="st8" d="M598.6,169.4c-0.8-4.3-3-2.9-12.6-2c-8,0.7-9.5-0.9-9.5-3.4c0-2.5,1.7-4.5,9.5-3.4c9.5,1.3,11.8,2.2,12.6-2
					c0.8-4-5.8-4.5-11.9-5.6c-19.6-3.4-21,8.4-21,11c0,2.6-0.4,14.3,21,11C592.8,174,599.4,173.4,598.6,169.4z"/>
				<path class="st8" d="M589.1,144.9c7.9,4.4,10.5,6.6,13,2.4c2.5-4.3-1-5.2-9.2-9.2c-8.2-4.1-9.8-2.1-10.3-1.1
					C582,137.8,581.1,140.5,589.1,144.9z"/>
				<path class="st8" d="M598,131c4.5,4.2,9.2,9,12,5.8c3-3.3,0.5-4.2-6.2-11.2c-5.6-5.8-5.2-8-3.2-9.6c2.1-1.6,4.7-1.5,8.8,5.4
					c4.9,8.3,5.5,10.7,9.6,8.6c3.9-1.8,0.1-7.4-2.7-12.8c-9.4-17.6-20-11.2-22.2-9.6C591.9,109.3,581.9,116.3,598,131z"/>
				<path class="st8" d="M630.5,125.7c5-0.7,3.6-4,1.9-12.7c-1.7-8.8-4.3-8.8-5.4-8.7c-1.1,0.2-3.8,1.1-2.6,9.9
					C625.7,123.1,625.5,126.4,630.5,125.7z"/>
				<path class="st8" d="M631.2,201.9c-4.9-1.3-4.9,2.3-6.9,11c-2,8.7,0.4,9.8,1.5,10c1.1,0.2,3.9,0.4,6.3-8.1
					C634.6,206,636.1,203.1,631.2,201.9z"/>
				<path class="st8" d="M617.6,198.1c-3.8-1.9-4.1,0.5-9.2,8c-4.2,6.3-6.4,6.5-8.4,4.9c-2-1.5-2.4-3.9,3.1-9
					c6.8-6.2,8.8-7.3,6-10.5c-2.6-3-7,1.6-11.5,5.3c-14.5,12.3-6.1,20.4-4.1,21.9c2,1.6,10.8,8.9,21.1-8.7
					C617.6,205.1,621.2,199.9,617.6,198.1z"/>
				<path class="st8" d="M602.9,181.9c-1.9-4.5-4.8-2.4-13.2,1.2c-8.4,3.7-7.8,6.1-7.4,7.1c0.4,1,2,3.3,10.5,0.1
					C601.4,187.1,604.8,186.5,602.9,181.9z"/>
				<path class="st8" d="M644,125.1c4-0.1,3.1-2.2,3.9-10.6c0.6-7,2.3-8.1,4.7-7.7c2.3,0.4,3.8,2.2,1.5,8.8c-2.8,8-4,9.8-0.2,11.3
					c3.5,1.3,5.1-4.3,7-9.4c6.3-16.4-4.3-19.5-6.7-19.9c-2.4-0.4-13-2.7-13.5,16.3C640.7,119.3,640.2,125.2,644,125.1z"/>
				<path class="st8" d="M654.5,200.4c-3.8,1.5-2.1,3.2,0.4,11.3c2.1,6.8,1,8.4-1.4,8.9c-2.3,0.4-4.4-0.6-4.8-7.6
					c-0.5-8.5-0.1-10.6-4.1-10.5c-3.8,0-3.1,5.9-3,11.2c0.5,17.6,11.5,16.5,13.9,16c2.4-0.5,13.1-2.2,6.2-20
					C659.8,204.6,658,199,654.5,200.4z"/>
			</g>
			<g>
				<path class="st9" d="M136.1,197.9c14.3,0,25.8-11.8,25.8-26.4l-11.4,0c0,8.1-6.4,14.7-14.4,14.7c-8,0-14.4-6.6-14.4-14.7
					l-11.4,0C110.2,186.1,121.8,197.9,136.1,197.9z"/>
				<polygon class="st9" points="185.3,233 230,233 226.7,216.9 193.1,216.9 186.2,183 208.1,183 210.6,194.5 199.8,194.5 
					202,205.7 224.4,205.7 217.5,171.3 173.1,171.3 				"/>
				<polygon class="st9" points="48.2,205.7 69.2,205.7 71.5,194.5 60.6,194.5 63.1,183 84.8,183 77.9,216.9 45.8,216.9 42.4,233 
					86.6,233 98.9,171.3 55.5,171.4 				"/>
				<polygon class="st9" points="153.8,197.3 153.8,208.8 142.7,208.8 142.7,219.3 129.2,219.3 129.2,208.8 118.1,208.8 
					118.1,197.3 111.1,197.3 121.4,233 150.5,233 160.8,197.3 				"/>
			</g>
			<g>
				<g>
					<path class="st10" d="M318.3,72.4c9.8-11.7-5.4-24.3-5.4-24.3s1.7,4.4-6,12.8c-4.4,4.7-3.8,11.5-3.8,11.5
						c-6.7-3.5-8,4.8-8.2,10.3l5.2,5.7l3.7-2c6.3-8.1,9.4-16.9,9.9-29.6c1.8,10.4,0.9,18.5-2,25.4l10.6-5.7
						C320.9,73.7,318.3,72.4,318.3,72.4z"/>
					<path class="st10" d="M277.5,153.8c-0.9-3.2-1-6.6-0.5-9.8h-0.2c2.1-11.2,9.3-18.2,18.5-20.6c17.6-6.9,5.4-15.6,5.4-15.6
						c21.3-2.4,9.4-11,9.4-11c2.3-1.7,4.2-3.3,5.8-4.8c-3-0.5-6.1-0.8-9.3-1c-4.7,6.4-11.1,12.1-18.3,18.7
						c-14.8,13.5-30.6,41.2-7.9,60c-30.3-12.7-24.6-42.4-0.2-61.6c8.2-6.5,14.8-11.9,19.8-17.3c-4.7,0.1-9.3,0.6-13.6,1.4
						c-1.2,3.1-1.9,6-1.9,6c-11.3-9.9-18.2,15.3-18.2,15.3c-11.4-12.2-20.4,7.6-20.6,19.2c-0.2,16.2,7.2,33.6,30.5,42.8
						c-0.1-1.1-0.1-2.3-0.1-3.5h19.3C286.8,167.8,279.6,161.9,277.5,153.8z"/>
					<path class="st10" d="M296.7,150c-0.1-2.5,0.2-4.4,0.7-6h-9.6c-0.9,2-1.3,4.5-0.9,7.6c1.4,11.1,10.9,17.2,19.7,20.5h7.5
						C306.9,168,297.3,160.6,296.7,150z"/>
					<path class="st10" d="M255.4,177.4c-15.4,3.1-13.5,21.8-13.5,21.8s2.8-7.6,10-11.4c6.6-3.5,17.1-4.6,27.7,0.9
						c-0.8-1.5-1.4-3.2-1.9-5C272.9,179.4,265.5,175.3,255.4,177.4z"/>
					<path class="st10" d="M295.9,214c-6.4,5.9-15,10.3-25.9,8.1c-8.4-1.7-13.4-7.4-10.9-15.9c2.3-7.3,9.8-7.5,12.1-5.9
						c-3.8,2.8-3.6,11.6,5.9,12.1c8.8,0.2,11.9-12,2.7-17.3c-11-6.4-30.3-1.9-32,17.8c10.4,12.3,25,20.1,42.1,22.9
						c22.6-7.2,32.6-37.6,36.4-45.8c-4.8,9-11.5,12.5-20.9,12.5C302.4,206.8,299.4,210.7,295.9,214z"/>
				</g>
			</g>
			<g>
				<path class="st11" d="M463.9,209.7l-10.6-25.2l14.9,2.7l-13.6-23l13.9-23.7l-15.2,2.8l10.6-25.2l-22,16l-1.3-27l-12.9,24.8
					l-12.9-24.7l-1.3,26.9l-22-16l10.6,25.2l-15.2-2.8l13.9,23.7l-13.6,23l14.9-2.7l-10.6,25.2l22-16l1.3,27.4l12.9-24.6l13,24.6
					l1.3-27.3L463.9,209.7z M422.4,185.2c-11.7-3.4-18.5-15.9-15.2-27.7c2.4-8.3,9.1-14.1,17-15.7c-2.3,2.5-4.1,5.6-5.2,9.1
					c-3.4,11.9,3.4,24.3,15.2,27.7c3.5,1,7,1.1,10.4,0.5C439.1,185,430.7,187.6,422.4,185.2z"/>
			</g>
		</g>
	</g>
</g>
</svg>
