<?xml version="1.0" encoding="utf-8"?>
<!-- Generator: Adobe Illustrator 23.0.6, SVG Export Plug-In . SVG Version: 6.00 Build 0)  -->
<svg version="1.1" id="Capa_1" xmlns="http://www.w3.org/2000/svg" xmlns:xlink="http://www.w3.org/1999/xlink" x="0px" y="0px"
	 viewBox="0 0 1194.8 265.7" style="enable-background:new 0 0 1194.8 265.7;" xml:space="preserve">
<style type="text/css">
	.st0{fill-rule:evenodd;clip-rule:evenodd;fill:#BD945C;}
	.st1{fill:#BD945C;}
	.st2{fill:#AF1A3F;}
</style>
<g>
	<g>
		<path class="st0" d="M220.2,170.9c2.9-3.5,3.3-14.8,3.6-24.8c0.7-6.2,2.9-10.3,2.9-14.7c-0.1-5.7-1-11.4-3-17.2
			c-0.6-1.2-3.4-1.4-2.8,0.6c1.5,4.6,2.4,9.9,2.7,15.7c0.2,3-0.6,6.6-1.9,10.5c-0.5,2.4-0.6,5.2-0.5,8.3c-0.1,1.6-1.2,1.7-1.2-0.1
			c-0.2-9.1,0.5-14.6-0.5-20c-0.4-2-2-5-4.7-8.6c-1-1.9-1.9-4-2.5-6.5c-0.3-1.2-0.4-2.4-0.7-3.5l-0.9-3.7c-0.7-1.4-3.4-0.1-3.1,1.7
			l2.4,10.5c0.9,2.9,3.4,5.5,5.4,8.4c1,1.6,1.2,2.8,1.3,4.7c0.3,3.8,0.5,9.4,0.5,15.7l1.4,10.3c0.3,3.6-0.1,7.3-0.9,11.2
			C217.2,172.5,218,173,220.2,170.9z"/>
		<path class="st0" d="M219.3,120.3l-1.1-3.1c-0.2-0.6-0.3-1-0.4-1.7c0-0.6-0.1-1.2-0.1-1.8c0-0.5-0.1-0.7-0.3-1.2
			c-0.5-1.1-1.2-1.6-2-1.8c-1-0.4-1.5-0.1-1.4,0.8c0.4,4.4,2,7.7,4.3,10.2C219.2,122.2,219.5,121.7,219.3,120.3z"/>
		<path class="st0" d="M203.4,141.6c-0.7-1-1.4-4.5-2-9c-0.2-1.3-0.4-2.6-0.7-3.9c-0.7-3-1.3-4.6-3-6.1c-3-2.4-5.5-6.3-7.6-11.7
			c-1.4-3.8-3.5-1.5-2.9,1.1c1,2.9,2.1,5.3,3.3,7.1c0.5,0.7,0.9,1.2,1.5,1.7c2.3,2.2,4,3.8,5,5.5c1.3,2.2,1.3,4.7,1.6,7.1
			c0.8,5.4,1.9,9.2,4.3,14.8c0.6,1.5,1,3.1,1.1,4.7l0.6,6.2c0.5,3.4,2.4,2.7,2.4,0.1c0.3-4.2,0.5-8.2,0-18.3
			c-0.5-6.5-1.4-11.9-3.1-14.8c-1-1.9-2.9-2-1.9,0.4c1.8,5.2,2.6,10.1,2.6,14.7C204.7,143,203.8,143,203.4,141.6z"/>
		<path class="st0" d="M195.4,110.7c-0.3-1.8-3.1-1.6-2.8-0.2c0.9,3.7,2.3,6.2,4.1,8.1c0.9,0.9,1.7,0.3,1.1-1
			C196.6,115.7,195.8,113.5,195.4,110.7z"/>
		<path class="st0" d="M214.3,163.1c1-5.6,1.3-12.3,1-19.9c0-3.6-0.2-7.3-0.8-10.9c-0.3-1.8-0.9-3.3-1.7-4.6
			c-1.1-1.5-1.8-1.9-1.7,0.4c0.8,4.4,1.5,8.8,1.6,13.8c0.1,1.6-0.7,2-1.2,0.7c-0.2-0.4-0.2-0.8-0.3-1.3l-1.1-10.7
			c-0.9-4.4-1.8-6.4-3.4-8.5c-2.7-3.1-4.6-7.3-6.6-13.3c-0.6-3-2.1-2.8-2.5-0.7c-0.1,0.7-0.1,1.2,0.1,1.9c1.3,5.2,3.1,9.7,6,12.8
			c1.6,1.6,2.7,3.6,3,6.4c1,6.7,1.8,14.3,4,20.7c0.6,1.5,0.8,3.1,0.9,4.8c0,4.1,0.1,6.4,0.3,8.3C212,166.1,213.8,166.4,214.3,163.1z
			"/>
		<path class="st0" d="M207.3,119.9c0.5,0.1,0.7-0.3,0.6-1.1c-0.1-0.5-0.2-0.8-0.4-1.3c-0.9-1.9-1.4-3.4-1.6-4.7l-0.4-2.8
			c-0.1-0.6-0.2-1-0.6-1.5c-1.1-1.4-3-1.5-2.8,0.3c0.8,4.5,2.2,8.1,4.5,10.5C206.8,119.7,206.9,119.9,207.3,119.9z"/>
		<path class="st0" d="M193.6,131c-1.4-3.9-3.2-6-5.1-7.2c-2.9-2-5.5-4.1-7.4-6.5c-0.7-1.1-1.3-2.1-1.8-3.2c-0.2-0.4-0.3-0.8-0.8-1
			c-0.7-0.2-1.5,0.8-1.7,1.7c-0.1,0.5-0.1,0.8,0.2,1.3c1.9,4,4.1,6.4,6.5,7.7c3.9,2.1,7,5.2,8.5,9.3c2,5.6,2.8,9.3,3.5,11.9
			c0.2,0.6,0.4,1.3,0.8,1.8c0.7,0.9,1.5,0.8,1.9-0.3c0.2-0.6,0.2-1.1,0.2-1.7c-0.1-10.5-1.1-16.9-3.8-20.2c-1-1.1-1.5-1-1.6,0.1
			c-0.1,0.5,0.1,0.8,0.3,1.3c0.7,1.7,1.2,3.3,1.4,4.8C194.9,132.3,194.1,132.3,193.6,131z"/>
		<path class="st0" d="M184,112.6c-0.7-1.5-3.3-0.7-2.7,0.4c1.6,2.9,3,4.8,5.1,6c1,0.6,1.7-0.2,0.8-1.2
			C185.9,116.3,185.1,114.8,184,112.6z"/>
		<path class="st0" d="M173.1,123.4c1.1,0.4,2.1,0.9,3,1.3c1,0.5,1.7,1.1,2.5,1.9c3.3,3.6,5.6,8.5,9.1,13.1c0.9,1.1,2.4,0.6,2.1-1.1
			c-0.4-2.3-1.8-6.3-4.1-11.7c-0.5-1.2-3.3-2.3-2.8-0.6l1,2.1c0.2,0.4-0.2,0.7-0.5,0.3c-0.8-1.4-1.8-2.7-2.8-3.8
			c-0.6-0.6-1-0.9-1.7-1.3c-1-0.5-2.3-1.1-3.8-1.7c-1.3-0.8-2.1-1.4-2.7-1.9c-0.8-0.8-1.8-1.8-2.9-3c-1.2-1-2.3,0.4-1.6,2
			c0.7,1.3,1.6,2.4,3,3.3C171.6,122.8,172.3,123.1,173.1,123.4z"/>
		<path class="st0" d="M209,168.9c0.6-0.9,0.5-1.9-0.3-2.7c-2.6-1.8-4.4-3.1-5.8-4.2c-9.7-8.2-20.1-16.6-31.5-25.5
			c-1.8-1.5-2,1.5-0.3,2.7l30,24.6l2.8,2.3c0.4,0.3,1.2,0.8,1.4,1.2s0,0.8-0.5,1.2c-2.8,1.5-5.7,0.9-8.5-1.5
			c-8.4-7.4-17-15-25.6-22.7c-1.2-1-1.9,0.1-1.4,1.6c0.2,0.7,0.5,1,1,1.5c8.5,7.6,16.9,15.2,25.4,22.9
			C200.5,173.2,204.9,172.4,209,168.9z"/>
		<path class="st0" d="M195.9,164.9c1.6,1.3,2.8,2.1,3.8,2.6c1.6,0.7,2.2-0.4,1.1-1.5l-29.4-25.3c-1.2-0.9-1.9,0.8-0.3,2.4
			L195.9,164.9z"/>
		<path class="st0" d="M169,149.4c5.8,5.9,11.8,11.7,17.9,17.4c0.8,0.8,1.7,1.6,2.7,2.2c1.7,1,2.9-0.3,2.1-1.1l-2.7-2.4l-19.2-17.8
			C168.5,146.7,167.7,148,169,149.4z"/>
		<path class="st0" d="M175,120.1c1,0.3,1.3,0,1.1-0.9c-0.2-0.6-0.5-1.1-0.9-1.6c-0.5-0.6-1-1-1.6-1.2c-1.6-0.6-2.4-0.2-1.9,0.9
			C172.6,118.5,173.7,119.4,175,120.1z"/>
		<path class="st0" d="M195.2,172.9c0.9-0.8,0.4-1.5-0.2-1.8c-0.6-0.3-1-0.1-1.6,0c-1.9,0.4-3.6,0-5.4-1.6c-8.1-7.5-13-13-19.2-18.9
			c-1-0.9-1.6-0.2-1.4,0.9c0.1,0.4,0.4,0.7,0.7,1l1.1,1.3c5.4,5.6,10.8,11.2,16.3,16.7c1.7,1.6,2.7,2.6,3.9,3.1
			C192.5,174.3,194.2,173.5,195.2,172.9z"/>
		<path class="st0" d="M165.7,153.2c4.6,5.5,9.1,10.6,13.7,15.4c1.5,1.5,2.9,2.4,3.8,2.3c0.7-0.2,0.6-0.6,0-1.2
			c-4.2-3.9-8.6-8.6-13-13.6c-1.2-1.4-2.3-2.9-3.7-4C165.8,151.4,165.1,152.3,165.7,153.2z"/>
		<path class="st0" d="M186.2,174.4c1-0.4,0.4-1.9-0.7-1.9c-2-0.1-3.8-0.9-5.3-2.2c-5.1-5.2-10.1-10.6-14.9-16.1
			c-1.3-1.3-1.7,0.2-1,1.7c0.2,0.5,0.5,0.8,0.9,1.2c2.7,3.1,6.1,6.9,11.2,12.4c1.5,1.6,2.7,2.9,4.7,3.9
			C182.9,174.4,184.6,174.9,186.2,174.4z"/>
		<path class="st0" d="M177.6,172.9c1.2-0.2,0.7-1.7-0.5-1.9c-2.7-0.5-6.6-5.8-10.2-10.3c-0.8-0.8-1.7,0.1-1.2,1.1l6.8,8.6
			C173.9,171.9,175.4,172.9,177.6,172.9z"/>
		<path class="st0" d="M91.2,87.9c2,0.1,3.1-0.9,1.7-2.5c-4.4-4-0.8-9,4.7-7.6c1.1,0,2.3-0.2,3.4-0.8c2.4-1.8,4-2.1,5.9-1.2
			c0.5,0.6,0.4,1.1-0.1,1.6s-1,0.6-1.6,0.7c-1.9,0.4-3.1,1-3.7,1.5c-0.5,0.7-0.3,1.2,0.6,1.5c1,0.2,1.7,0.5,3,0.1
			c2.5-0.9,4.7-2.4,6.7-3.9c0.9-0.8,0.9-1.5,0.2-2.5c-2.4-2.3-4.8-3.5-8.3-2.7c-2,0.4-3.8,0.4-5.2-0.1l-4.6-1.7
			c-1.7-0.8-3.2-0.9-4.3,0.1c-0.6,0.5-0.6,0.7,0.2,1.3c0.7,0.7,0.5,1.1-0.6,1.1c-1.4-0.2-2.2-0.2-2.8,0.4c-1.4,1.2-2.5,2.6-3.2,3.9
			c-1,1.6-1,2.9-0.6,4.4C84.1,85.3,86.7,87.8,91.2,87.9z M87.1,75.4c0.8-0.3,1.4-0.2,2,0.2c0.8,0.4,1.5,0.2,2.1-0.2
			c0.9-1,1.8-1.7,2.7-2c1.7-0.4,3,0.1,4.2,1c0.5,0.7,0.4,1.1-0.5,1.2c-1.7-0.2-3-0.1-4.4,0.2c-3,0.7-4.5,2.8-4.5,6
			c0,1.7-0.7,1.9-1.7,0.9C84.2,79.8,84.6,77.5,87.1,75.4z"/>
		<path class="st0" d="M95.7,61.8c-1.8,1.2-2.9,1.8-3.6,2.6c-1.5,1.4-1.5,2.6-0.5,3.4c1,0.6,2,1.1,3.3,1.5c0.6,0.2,1.2,0.1,1.7-0.5
			c0.5-0.5,1-1.6,1.3-3.1c0.3-1.4,1-2.6,1.9-3.6c1-1.1,1.5-1.4,1.9-3c0.6-2.3,0.1-3.8-1.1-4.7c-0.7-0.6-0.7-0.1-0.7,1
			C99.5,58.8,97.5,60.6,95.7,61.8z"/>
		<path class="st0" d="M98.3,68.7C97.4,69.5,98,70.5,99,70c2.8-1.4,3.3-3.4,2.2-5.9c-0.7-1.1-1.8-0.5-1.6,0.4
			C100.1,66.4,99.7,67.9,98.3,68.7z"/>
		<path class="st0" d="M104.4,58.2c0.5-0.5-0.3-3.2,1.4-2.1c0.7,0.4,1.1,0.2,1.3-0.6c0-1.7-0.5-3.1-1.6-4.2
			c-0.5-0.6-0.9-0.4-1.2,0.4c-0.7,1.4-1.1,3.7-1.3,6.1C103,59,103.8,59.1,104.4,58.2z"/>
		<path class="st0" d="M103.6,62.8c9.9-4.1,9.2-11.8,6.5-14.2c-0.6-0.3-0.8-0.2-0.7,0.4c0.7,3.8-0.2,6.1-1.7,7.9
			c-2.6,2-5,3.5-5.4,3.8C101.1,61.6,102.4,63,103.6,62.8z"/>
		<path class="st0" d="M104.2,65.2c1.8-0.4,4-2.5,6.1-3.4c1.6-0.5,1.8,0.4,0.8,1.3c-2.6,2.3-7.1,2.8-7.8,4c-0.4,0.8-0.2,1.1,0.6,1.1
			c2.5-0.4,5.6-2.2,9.1-4.5c2-1.5,2.6-3.2,1.7-5.1c-0.4-0.6-1-0.7-1.7-0.2c-2.7,2.4-6.3,3.1-8.9,5.1
			C102.6,64.6,103.1,65.5,104.2,65.2z"/>
		<path class="st0" d="M109.4,70.9c-0.9,0.7-0.3,1.4,1.4,1.4c3.9-0.7,5.7-2.2,5.2-4.7c-0.3-1.1-2.1-1.7-4.4-1
			c-4.6,2-9.9,3.3-10.7,3.9c-0.7,0.4-0.9,0.7-0.2,1c1.3,0.5,2.5,0.4,3.7-0.1c2.7-1.2,4.7-2.8,6.6-3.2c0.4-0.1,1.1-0.2,1.5,0.1
			c0.3,0.2,0.3,0.7-0.1,1L109.4,70.9z"/>
		<path class="st0" d="M117.1,49.1c-0.7-0.6-1.2-0.4-1.7,0.4l-0.6,2.1c-0.3,0.9-0.7,1.6-1.1,1.9c-0.9,0.8-1.3,1.7-1.1,2.5
			c0.2,0.6,0.7,0.6,1.1,0.1c0.4-0.8,0.9-1.5,1.9-2.3c0.9-1,1.9,0,1.6,0.9c-0.4,0.6-0.9,1.3-1.6,1.9c-0.5,0.7-0.4,1.2,0,1.5
			c0.2,0.1,0.4,0.3,0.7,0.5c0.4,0.4,0.8,0.4,1.2-0.2C119.2,56.3,119.5,50.9,117.1,49.1z"/>
		<path class="st0" d="M129.2,61.9c-2.9-1.7-6-3.2-9.3-4.5c-0.6-0.2-1,0.6-0.3,1c3.4,1,6.6,3.6,10.8,5.9c0.5,0.3,1,0.3,1.3-0.1
			c1.3-1.3,2.2-2.9,2.6-4.7c0-0.5-0.4-0.7-0.8-0.3c-1.2,0.4-2.4,0.3-3.6-0.3c-3.1-1.8-6.2-3.1-9.1-3.8c-1.1-0.1-1.2,0.7-0.3,1
			c3.2,1.1,6.4,2.5,9.5,4.6c0.3,0.2,0.5,0.3,0.6,0.7C130.8,62,130.2,62.3,129.2,61.9z"/>
		<path class="st0" d="M114.6,77.5c1.3,0.9,2.8,0.3,3.1-1.3c0.2-1.5-0.4-2.8-1.5-3.9c-0.4-0.5-1.2-0.1-0.8,0.5c1,1.7-0.3,2.5-1,0.5
			c-0.5-0.9-1.7-0.3-1.5,0.9C113.2,75.9,113.8,76.9,114.6,77.5z"/>
		<path class="st0" d="M117.3,65.9c-0.8-0.3-1.2,0.1-0.6,0.7c1.6,1.6,3.6,2.7,4.7,4.3c0.5,0.8,0,1.4-0.5,1.5
			c-0.4,0.1-0.7-0.2-0.9-0.5c-0.7-0.7-1.1-1.3-1.4-1.9c-0.6-0.9-1.7-0.6-1.3,0.8c0.3,1.6,0.8,3.1,2,4.3c1.4,1.1,3,0.5,4.8-1.5
			c0.6-0.8,0.4-1.9-0.1-2.8C122.7,69,120.2,67.4,117.3,65.9z"/>
		<path class="st0" d="M118.6,60.5c1.6,0.7,3.8,2,7.6,4.6c0.9,0.6,0.6,3-1.3,2.5l-2.9-1.4c-0.5-0.3-0.8,0.2-0.4,0.6
			c1.3,1.4,2.6,2.6,4.1,3.4c1,0.6,1.8,0.8,2.8-0.1c1-0.9,1.5-2.5,0.7-3.9c-2-2.9-5.6-5.2-10.6-7C117.4,59.1,117.4,59.9,118.6,60.5z"
			/>
		<path class="st0" d="M115.6,63.2c-0.6,0.1-0.5,0.6,0.1,0.8c1.6,0.6,3.2,1.3,5,2.2c0.6,0.2,0.8-0.2,0.7-0.8
			c-0.1-0.4,0.1-0.6,0.5-0.4l1.2,0.7c0.7,0.3,1-0.1,0.5-0.7c-1.9-1.6-4-3-6.6-3.9c-0.8-0.2-1.1,0.2-0.5,1
			C117,62.8,116.8,63.3,115.6,63.2z"/>
		<path class="st0" d="M183.9,68c7.8,6.3,16.5,17.8,26.3,35.5c3.5,5.6,8.5,8.7,15.7,8.3c1.3-0.3,1.9-0.8,0.8-1.9
			c-2.5-2.3-4.1-5-4.8-8.2C214.4,82.3,203,69.6,194,62.1c-1.6-1.1-2.8,0-1.3,1.5c10.4,9.1,19.7,22.1,27.1,42.1
			c0.2,1.7-0.7,1.9-2.6,0.4c-2.6-2-4.7-4.6-6.4-7.5c-7.5-14.5-16.7-24.1-26.1-32.9C182.9,63.8,182.5,66.5,183.9,68z"/>
		<path class="st0" d="M215,103.5c1.4,1.4,3.3,1.1,2-2.1c-6.7-15-16.1-27.1-27.6-37.1c-1.7-1.1-4.1-0.3-1.6,1.4
			C196.1,73.5,204.6,83.6,215,103.5z"/>
		<path class="st0" d="M202,100.9c-5.1-9-11.9-16.5-18.9-23.8c-1.1-1.4-1.9,1.8-0.9,3.3c7.4,7,15.9,20.9,20,24.7
			c3.1,2.2,6.3,0.6,5.7-2.6c-5-11.7-13.1-21.9-23.5-31c-1.9-2.2-1.6,2-0.4,3c6.8,7.2,13.6,14.9,19.9,25.9
			C204.7,102.6,203.1,102.7,202,100.9z"/>
		<path class="st0" d="M181.2,82.5c-0.9-1.1-1.5,0.9-0.8,2.1c4.7,5,9.4,10.2,13.5,16.8c1.5,2.3-1.4,4-2.9,2.3
			c-4.6-4.5-8.7-10-12.7-14.7c-1.1-1.1-2,1.3-1.3,2.4l9.2,11.4c1.5,2,3.1,3.3,4.8,4.1c4.7,1.2,6.9-0.9,5.9-5
			C193,93.9,187.3,88,181.2,82.5z"/>
		<path class="st0" d="M177.7,86.6c4.1,5.4,8.5,10.3,13,14.8c0.8,0.6,1.6-0.2,1.1-1.2c-3.7-5.6-8.1-10.7-13.2-15.5
			C178.1,84.1,177.3,85.7,177.7,86.6z"/>
		<path class="st0" d="M170.7,100.8c3.8,4.8,6.9,8.2,8.6,9c6.1,1.7,7.6-0.6,6.6-5c-0.9-2.7-5.3-7.7-9.2-11.8c-1.3-1-2.6,0.5-1.4,1.9
			c3,2.8,5.6,6,7.7,9.6c1,2.1-1.1,3.4-3.2,2c-2.7-2-5.3-5-7.8-8C171,97.8,170,99.7,170.7,100.8z"/>
		<path class="st0" d="M172.4,97.3l7.6,8.3c0.8,0.7,1.9,0.2,1.6-0.8c-2.3-3.7-5.2-7.1-8.8-10.1C172,93.9,171.6,96.2,172.4,97.3z"/>
		<path class="st0" d="M163.6,108.3c1.8,2.8,3.8,4.8,6.1,6.1c2.7,1.3,7.7-0.8,6.4-4.9c-1.7-2.9-3.8-5.5-6.3-8
			c-0.9-0.8-1.9,0.6-1.4,1.6c2.3,2.6,4.1,4.9,4.6,6.1c0.7,2.3-1.8,3.5-3.3,2.5c-1.6-1.3-3.1-3.1-4.7-5.1
			C164.1,105.9,163,107.1,163.6,108.3z"/>
		<path class="st0" d="M171,107.7c-1.1-1.5-2.4-3-4.1-4.3c-1-0.7-1.9,0-1.9,0.8c0,0.6,0.4,1,0.7,1.4c1.2,1.5,2.1,2.5,3.3,3.8
			C170.4,110.6,172.3,109.4,171,107.7z"/>
		<path class="st0" d="M161.1,110.6l2.3,3c1.6,1.8-1.8,3.1-2.6,4.6c-0.6,1.2,0.4,2.4,1.5,1.7l3.2-2.6c1.1-0.9,1.4-2.1,0.7-3.6
			l-3.7-4.8C161.6,108.3,160.4,109.2,161.1,110.6z"/>
		<path class="st0" d="M158.5,111.9l2.1,3.7c0.6,0.9,1.9,0.1,1.5-1.1l-1.8-3.6C159.8,109.9,158,110.6,158.5,111.9z"/>
		<path class="st0" d="M165,58.1c5.1,2.6,10.2,5.2,13.7,8.7c0.9,1,0.2,2.6-1.7,1.5c-3.7-3.4-7.4-5.5-11.1-7.3
			c-1.3-0.7-1.5,1.5-0.1,2.1c3.5,1.8,7.5,4.6,12,8.5c1.4,1,2.5,1.3,3.6-0.3c1.1-2.9-0.2-5.5-3.2-7.9c-5.3-3.5-10.4-6.5-14.5-7.8
			C162.3,54.9,162.9,56.6,165,58.1z"/>
		<path class="st0" d="M166.6,65c-1.1-0.4-1.3,1.4-0.3,2.3c2.9,2.4,9.9,6.4,10.7,8.4c0.9,1.7-0.1,4.4-2.1,3.1L168,74
			c-1.2-1-1.1,1.5,0.3,3.1c1.6,1.5,3.3,2.9,5,4c0.9,0.6,2.3,1.6,3.4,1.7c0.5,0,0.9-0.1,1.4-0.4c1.9-1.9,2.3-5.4,1.4-7.2
			C176,71.2,171.4,67.9,166.6,65z"/>
		<path class="st0" d="M174,77.1c0.9,0.5,2.7-0.1,1.7-1.2l-8.6-6.1c-0.7-0.5-0.5,1,0,1.6C169,73.5,171.4,75.3,174,77.1z"/>
		<path class="st0" d="M166.7,88.3l4.2,3.5c1,0.8,2,0.9,2.9,0.3c0.8-0.6,1.5-1.6,2.2-3c0.7-2,0.2-3.6-1.3-4.9l-5.7-4.9
			c-1-0.8-1.6,0.7-0.8,2.1c1.8,1.6,3.4,3.1,4.3,4.4c1,1.3,0.1,3.9-1.6,2.4l-3.2-2.4C166.5,85.2,165.8,87.3,166.7,88.3z"/>
		<path class="st0" d="M171.2,84.9l-2.5-1.8c-0.8-0.5-1.7,0.5-1.2,1.4l2.6,2.3C171.2,87.3,172.2,85.9,171.2,84.9z"/>
		<path class="st0" d="M161.2,97.6l4.3,3.6c1.1,0.7,2.1,0.3,3.2-0.7c1.4-2.3,3-4,1.4-6.7c-1.1-1.5-2.3-3-4-4.1
			c-1.3-0.6-1.8,1.5-1.1,2.3l2.1,2.5c0.8,1.5-0.9,3.9-2.4,2.8l-2.3-1.9C161.3,94.2,160.1,96.6,161.2,97.6z"/>
		<path class="st0" d="M164.6,95.8c1.1,0.9,2.1-0.8,1.1-1.8l-1.5-1.3c-0.8-0.6-2.2,0.6-1.2,1.8L164.6,95.8z"/>
		<path class="st0" d="M154,103.8l3.2,4.2c2.4,2.8,8-3,6.2-6.3c-1.4-2.4-2.5-3.8-3.3-4.6c-0.9-1.1-2.1,0.9-1.4,2.2l1.4,2.1
			c0.7,1.6-0.9,4.3-2.8,2.8l-2-2.5C154.2,101,153.3,102.4,154,103.8z"/>
		<path class="st0" d="M159.4,102l-1.7-1.9c-0.8-0.7-1.9,0.4-1.4,1.5l1.8,2C158.8,104.1,160.1,103.1,159.4,102z"/>
		<path class="st0" d="M158.6,130.7c1.9,3.6,3.3,9.3,3.9,18.5c0.1,1.9,1.5,2,2.8,0.6c3.8-4.9,3.2-20.2-1.3-28.3
			c-0.7-1-2.2,0.4-1.6,1.9c2.8,7.3,4.4,14.1,3,20c-0.5,1.8-1.2,1.3-1.5-0.5c-0.8-7.3-2.5-12.1-4.5-15.9
			C158.7,125.6,158,129.1,158.6,130.7z"/>
		<path class="st0" d="M160.1,125.7c1.9,3.4,3.3,7.6,3.9,12.5c0.1,0.9,1.2,0.7,1.2,0c-0.4-6.1-1.8-10.9-3.9-14.9
			C160.4,121.9,159.6,124.4,160.1,125.7z"/>
		<path class="st0" d="M135.9,47.3c1.6,2.3,4.2,3,6.5,4.3c1.1,0.7,2.2,1.4,3.2,2.1c3.7,2.5,6.4,5.4,8,14.4
			c1.5,8.9,2.8,13.9-5.5,20.3c-1.2,1.3-0.5,3.7,1,3.5c2.3-1,4.5-2.9,6.6-6c4.7-6.1,0.8-20-1.2-26.8c-1.4-4-3.9-6.4-6.9-7.9l-8.7-4.9
			c-1.8-1.7-1.5-4,0.7-5.1c1.9-0.9,4.9-0.4,7-0.1c14.5,2.1,27.1,7.9,38.6,17.3c0.9,1.5-0.1,2.1-2.4,2c-1-0.1-1.6-0.5-2.1-1l-1-1.9
			c-0.3-1.2-1.2-0.9-1.5,0l-0.6,2.6c-0.1,0.6,0.1,1,0.6,1.1c5,2.1,9.9,1.9,14.7-1.7c1.1-1.5,0.7-2.4-1.2-2.6c-2.9,0-5.7-0.8-8.4-3.1
			c-12.7-8.9-26.5-13.9-41.6-14.7c-1.5-0.1-2.8-0.2-4.2,0.5C134.4,41,133.8,44.4,135.9,47.3z"/>
		<path class="st0" d="M68.8,63.4c-0.6,0.9-1.2,2.2-0.6,4.3l2.3,10.4c0.8,2.5,2,3.7,3.5,4l6.2,0.3c1.5-0.3,2-2.5,0.3-3.1l-4.8-0.4
			c-1.5,0.1-2.4-2.2-3.1-5.2c-1.3-5.3,1.1-8.9,4-12.4c0.9-1,0.6-1.4-0.1-1.3c-0.4-0.3-0.4-0.7,0.1-1.2l0.9-0.8
			c0.5-0.7-0.4-1.4-1-1.1C74.3,57.8,71.7,60.1,68.8,63.4z"/>
		<path class="st0" d="M83.1,73.3c-2.8,0.8-5,0.5-6.6-1.2c-1-0.6-1.9,0.5-1.2,1.7c2.3,2.8,5,3.1,8.1,0.9
			C84.2,74.1,83.9,73.2,83.1,73.3z"/>
		<path class="st0" d="M74.4,67.4c-0.7,1.6-0.4,2.8,1.3,3.4c3.1,0.7,6.6-0.9,10.4-3.7c0.7-0.8,0.5-1.5-0.5-1
			c-2.8,1.4-5.4,2.3-7.5,2.3c-1-0.3-1.1-1-0.1-2.4c1.2-1,2.2-2,3-3c0.4-0.4,0.5-0.8,0.3-1.4c-0.1-0.4-0.2-0.6-0.2-1
			c0-0.3,0-0.5,0.1-0.8c0.1-0.6,0.2-0.9,0.6-1.4s0.9-0.8,1.4-1.1c1.6-1,0.1-3.4-1.4-3.2c-1.6,0.5-2.8,1.4-2.5,3.5
			c0.3,1.7,0.1,2.5-0.9,3.9C76.7,63.3,75.2,65.3,74.4,67.4z"/>
		<path class="st0" d="M82.8,64.7c0.9-0.4,1.5-1.1,1.9-2c0.3-0.9,0.2-2-0.2-3c-1-2.3-2.9-0.2-2.3,1.1c0.7,1.1,0.5,2.3-0.3,3.5
			C81.8,64.8,82.1,64.9,82.8,64.7z"/>
		<path class="st0" d="M123,205.5c4.4,3.2,3.9,17.2,9.9,19c2.6,0.9,2.1-0.4,1.3-0.9c-4-1.6-3.5-17.3-9.8-19.7
			C122.2,203.5,121.5,204.2,123,205.5z"/>
		<path class="st0" d="M139.5,224.9c1.4-0.2,1.6-0.5,0.8-0.9c-4-2.3-4.1-18.4-10.7-19.8c-1.7-0.1-2.1,0.3-1.1,1.2
			C133.2,208.4,133.1,225,139.5,224.9z"/>
		<path class="st0" d="M145.5,225.2c1.3-0.1,1.2-0.3,0.6-0.8c-5.1-4.6-2.5-12.4-8.2-14.4c-1.2-0.3-1.5,0.5-0.8,1.1
			C139.4,212.7,139.5,224.9,145.5,225.2z"/>
		<path class="st0" d="M131.7,203.3c2-0.2,1.8-2.6,0.4-2.8c-2.5-0.4-6.1,0.1-8.9-0.9c-0.6-0.2-0.9-0.5-1.5-0.6
			c-1.6-0.2-2,0.9-1.4,2.3C122.1,203.8,129.1,203.4,131.7,203.3z"/>
		<path class="st0" d="M153.6,222.3c-0.5-2.4-3.4-1.6-2.9,0.4c1.5,3.5,3.8,5.1,7.6,3.4c2-1.5,2-4,0.7-5.7c-0.8-0.5-0.8-1.6-0.3-3.1
			c1.1-2.2,1.1-4.4,0.1-6.5c-0.5-1.4-0.2-2.4,0.5-3.1c1.9-1.5,1.3-6.7-3.3-6.8c-3.3,0.1-4.4,1.8-4.9,4.2c-0.3,1.5,2,2.4,2.7,0.7
			c0.7-3.8,4.8-0.8,2.5,0.8c-1.5,0.9-1.9,2.1-1.2,3.7c1,2.2,1.5,4.4-0.2,7.4c-0.7,2.1-0.2,3.1,1.4,4
			C157.5,223.1,154.3,224.8,153.6,222.3z"/>
		<path class="st0" d="M110.3,221.2c0.6,3.1,4.2,4.2,7.1,2.5c1.3-1,2-2.3,2.2-3.9c-0.2-1-1.7-1.7-2.4-0.9l-1.1,1.8
			c-0.7,1.3-2.9,0.6-2.4-1.1c0.2-0.8,0.7-1.3,1.3-1.7c0.6-0.8,0.6-1.8,0.1-3c-0.8-1.9-0.9-3.8-0.4-5.8l0.8-2.7c0.3-1.2,0-2.1-1-2.9
			c-1.8-1.3-0.4-3.4,1.1-2.7c0.8,0.4,0.8,0.9,1.3,1.9c1.2,1.7,3.4,1.1,2.7-1.3c-0.9-4.9-9.1-5.6-9,0.1c0,1.6,0.4,2,1,2.8
			c0.6,1.2,0.7,2.3-0.2,3.7c-0.7,2.3-1,4.2-0.1,5.7c0.5,1.6,0.6,3.1,0,4.2C110.5,219,110,219.4,110.3,221.2z"/>
		<path class="st0" d="M151.1,228.4c1.8-1,0.1-3.8-2.4-2.2c-0.7,0.4-1.4,0.5-2.2,0.6c-8.5-0.1-16.6-0.5-24.4-1.2
			c-0.6,0-1.3-0.3-2.2-0.7c-2.5-1.1-3.6-0.1-2.9,1.8c2.3,3.6,25.4,2.5,29.5,3C148.1,229.6,149.7,229.2,151.1,228.4z"/>
		<path class="st0" d="M131.6,42.3c-3.5-0.4-6.6,0-7,5c-0.5,3.3,0.6,5.5,3.6,6.2c7.5,2.3,13.1,5.2,14.3,12c0,3.6,0.8,5,1.5,5.7
			c0.7,0.6,1,0.2,0.9-0.7c0.4-7-1.6-11.9-6-14.5c-2.2-1.8-5.5-3.4-9.7-4.8c-4.2-0.9-2.5-8,1.7-7.2C132.5,44,133.2,42.8,131.6,42.3z"
			/>
		<path class="st0" d="M129.4,45.5c-0.7,0.2-0.9,0.8-0.1,0.9c2.2,0.1,2.3,1.6-0.1,1.7c-0.9,0.2-0.8,0.8,0.2,1.2
			C136.5,50.9,135,44.2,129.4,45.5z"/>
		<path class="st0" d="M132.6,50.7c-0.8,0-0.9,0.4-0.1,0.5c3.4,0.5,6.4,1.3,7.5,3.9c0.9,1,3.9,0.6,2.8-0.6
			C140.5,51.9,136.9,50.9,132.6,50.7z"/>
		<path class="st0" d="M141.1,67.8c-1.3-2.8-3.1-4.8-5.1-6.2c-0.9-0.7-1.7-0.2-0.9,0.8c3.1,3.3,5.5,6.1,6.7,11.6
			c0,0.8,0.2,1.6-0.5,2.5c-0.4,0.4-1,0.9-1.4,1.4c-0.9,1.1,0.2,2.8,1.7,2.5l3.9-2.8c0.8-0.6,0.8-2.1,0.3-2.6
			C143.9,73.4,142.3,70.9,141.1,67.8z"/>
		<path class="st0" d="M129.8,70.9c0.5,3.5,0.9,7.2,0.6,11.3c0,1.1,0.7,1.6,2.2,1.7c1.5-0.3,2.9-0.9,4.1-1.7c1.5-0.9,1.8-2,1.8-3.2
			c-0.3-4.5-1.6-8.9-4.5-13c-0.8-1.1-1.7-0.5-1.1,1c2.5,5.3,3.9,9.7,2.4,12.1c-1.6,1.4-2.5,1.3-2.7-0.3c-0.2-4.2-0.8-6.6-1.4-8.5
			C130.8,69.5,129.6,69.5,129.8,70.9z"/>
		<path class="st0" d="M133.5,77.4c0.2,0.8,1,0.7,1.2,0c0.2-0.4,0.1-0.9,0-1.3c-0.7-3.8-1.7-6.7-3-8.9c-0.5-1-1.1-0.3-0.7,0.7
			C132.2,70.2,133,73.4,133.5,77.4z"/>
		<path class="st0" d="M134.8,64.8c1.6,2.8,3.1,6.2,4.4,10.3c0.3,0.9,1.5,0.2,1.1-1c-1.2-3.8-2.8-7.1-5-10
			C134.8,63.5,134.3,63.9,134.8,64.8z"/>
		<path class="st0" d="M123,81.7l0.7-4.7c0.2-1.5-0.9-1.7-1.5-0.4c-0.8,1.6-3.7,9-0.4,9.5c8.2,1.3,7.5-6.4,7.3-13
			c-0.5-2.5-2.2-1.3-2.1,0.3c0.2,2.4,0,4.9-1.1,8.2C124.7,83.5,123.1,83.6,123,81.7z"/>
		<path class="st0" d="M124.5,74.9c-0.1,1.8-0.3,2.9-0.7,4.7c-0.5,1.9,1.8,1.7,2,0.3c0.2-1.7,0.3-3.4,0.2-5.1
			C126,73.8,124.7,73.9,124.5,74.9z"/>
		<path class="st0" d="M112.2,85.4c1.4,1.5,5.8,1.8,7-1.8l1.4-5.4c0.3-1.8-2.2-1.9-2.7,0.5c-0.3,1.8-0.7,2.9-1.7,4.7
			c-0.5,0.8-1.5,0.3-1-0.3c0.6-0.8,1-1.7,1.3-2.7c0.3-1.3-0.9-1.7-1.7-0.7c-0.7,1.3-1.6,2.5-2.6,3.6C111.8,84,111.6,84.7,112.2,85.4
			z"/>
		<path class="st0" d="M98.6,78.5c-1.9-1.1-3.5,0-2.3,1.3c5.1,4.1,6.6,8.9,3.8,14.7c-0.4,1.4,0.5,1.8,1.8,0.8
			C105.3,89.8,104.9,84.2,98.6,78.5z"/>
		<path class="st0" d="M50.2,94.4c-0.6,0.5-1.2,1-2,1.5c-0.4,0.2-0.8,0.4-1.1,0.7c-0.7,0.4-0.9,1.1-0.4,2.2c0.4,0.8,0.9,1.8,1.2,3
			c0.2,0.6,0.3,1.3,1,1.6c1.1,0.5,2.7-0.7,1.9-2.3c-1.3-2.3,0.3-2.7,1.6-4.4c0.4-0.4,0.6-0.8,0.5-1.4C52.6,94.1,51.4,93.6,50.2,94.4
			z"/>
		<path class="st0" d="M54.7,96c-3.2,1.8-3.8,3.8-2.4,8.2c1.3,2,3.4,1,2.7-1.6c-1-2.6,0-3.2,1.7-4.6C57.6,96.7,56.4,95.1,54.7,96z"
			/>
		<path class="st0" d="M59,97.4l-1.7,1.4c-1.1,0.6-1.7,1.6-1.4,3l0.6,3.7c0.7,2,3.4,1.4,2.9-0.9c-0.6-1.5-0.5-2.8,0.3-3.6l1.3-1.2
			C61.8,98.5,60.7,96.7,59,97.4z"/>
		<path class="st0" d="M92.1,83.8c4,3.3,5.7,6.8,2.6,10.9l-11,9.6c-7.5,6.8-8.6,13.4-3.4,19.8c0.8,0.6,1.4,0.3,0.8-1.1
			c-5.4-11.8,8.3-15.2,18.1-27c2.8-5.4,0.6-10.6-5.1-15.5C92.2,79.3,90.3,81.5,92.1,83.8z"/>
		<path class="st0" d="M101.9,138.2c-2.4,2.1,0.7,3.8,2.3,2.7c7-4.8,5.6-16.6-5-18.9c-9.5-0.9-14.2,3.8-16.2-5.8
			c0-2.6-1.8-1.8-1.9,0c-0.3,9.7,8.6,7.3,18,8.7C104.5,126.3,108.5,132.8,101.9,138.2z"/>
		<path class="st0" d="M86,131.4l11.8,0.4c1.5,0.1,2.2,1.3,1,3c-1.1,1.6,0.3,2.2,1.6,1.1c3.3-2.9,1.9-7.4-2.3-7.7
			c-7.9,0.1-13,0-15-1.5c-11.7-6.4-9.3-22,4.1-29.5c4.2-2.5,7.7-4.9,8.3-6.8c0.8-2-0.3-2.8-1.6-1.8c-1.5,2.2-4.7,4-8.6,6
			C66.3,103.6,68.4,129.2,86,131.4z"/>
		<path class="st0" d="M63.1,99.9c-1.8-0.7-2.2,0.7-1.1,1.8c4.3,3.5,7.1,6.7,1.8,16.8c-0.8,2.8-0.5,4.9,1.4,6.7
			c1.9,1.7,4,3.3,6.5,4.9c3.2,2.2,3,5.8,3.8,9.4c0.5,2.8,2.4,4.3,5.1,4.9c1.6,0.3,2.6-1.3,1-2.1c-2.3-0.9-3.4-1.9-3.6-3.5
			c-0.9-4.6-2-8.6-3.8-10c-2.3-1.5-4.4-3.1-6.4-5c-2.4-1.3-1.5-5.3,1.6-11.4C70.4,106.9,68,102.8,63.1,99.9z"/>
		<path class="st0" d="M60,105c2.7,2.3,2.1,6.1-0.5,11.4c-1.8,3.7-2.1,6.9-0.6,9.3c1.4,2.3,3.6,4.5,6.8,6.8c2.4,1.6,4.2,3.8,4.1,7.7
			c0.5,8.2,4.5,12.3,12,12.3c1.5-0.1,2.6-0.4,3.3-0.8c1-0.4,0.7-1.4-0.2-2.4c-0.7-0.8-1.7-1.2-2.9-0.9c-1.4,0.4-2,0.7-3.6,0.2
			c-3.6-1.1-5.5-3.6-5.8-7.6c0.2-4.6-1-7.8-3.6-9.5c-3.5-2.2-5.8-4.3-7.1-6.5c-2.5-5.2,0-7.6,1.5-10.9c0.6-1.4,0.8-2.6,0.9-4.1
			c0.1-4.1-1-6.6-3.4-7.4C58.9,102.2,58.5,103.5,60,105z"/>
		<path class="st0" d="M86.9,150.5c0.5,0.9,1.3,1.4,2.7,1.1c0.5-0.4,0.6-0.7,0.2-1.1c-1-0.5-1.8-0.7-2.3-0.7
			C86.8,149.8,86.7,150.1,86.9,150.5z"/>
		<path class="st0" d="M93.1,149.6c-0.9-0.7-2-1-3.2-0.9c-0.7,0.3-0.8,0.8-0.3,1.4c0.8,0.8,1.9,1.1,3.3,1
			C93.6,150.8,93.7,150.3,93.1,149.6z"/>
		<path class="st0" d="M93.1,147.2c-0.4,0.2-0.6,0.5-0.3,1.1c0.8,1.5,2.1,1.9,4,1.6c0.6-0.2,0.7-0.6,0.3-1.2
			C96.1,147.6,94.8,147.1,93.1,147.2z"/>
		<path class="st0" d="M96.9,133.6c-0.5,0.1-0.9,0.5-1.3,0.7c-1.7,1.2-2.6,2.8-2.2,5c0.2,1.2,0.9,1.8,2,1.7c0.7-0.1,1.2-0.3,1.6-0.6
			s0.8-0.7,1.2-1c0.5-0.4,0.5-0.9,0.1-1.4c-0.9-0.9-1-1.8-0.4-2.9C98.2,134.2,97.7,133.4,96.9,133.6z"/>
		<path class="st0" d="M86.6,149c0.9-0.1,1.1-0.4,0.7-1c-0.8-0.7-1.2-1.8-1.2-3.4c-0.1-1.8-0.4-3.5-1.4-4.7c-1-1.3-2,1.8-1.3,2.6
			c0.4,0.6,0.6,1.3,0.5,2.5C83.6,147.2,84.5,148.6,86.6,149z"/>
		<path class="st0" d="M86.5,136.1c-1.5,0.8-1.8,2.4-0.4,5c0.5,0.7,0.8,1.4,0.5,2.3c-0.2,2.7,1.6,5.1,3.4,4.5c1-0.4,1.2-0.9,0.4-1.5
			c-1.4-0.9-1.9-2.1-1.5-3.7c0.5-1.1,0.4-2.3-0.5-3.5c-0.8-1-0.7-1.8-0.5-2.6S87.7,135.7,86.5,136.1z"/>
		<path class="st0" d="M94,133.4c-3-0.7-6.6,1.1-4.7,5.1c0.5,0.8,0.7,1.6,0.2,2.5c-0.4,1-0.4,2-0.1,3c0.7,1.3,1.7,2.2,3.1,2.4
			c1,0,1.5-0.3,0.9-1.1c-0.6-0.6-0.5-1.1,0-1.7c0.8-0.6,0.7-1.3,0-2c-1.9-2.6-1.4-4.8,0.8-6.7C94.8,134,94.7,133.6,94,133.4z"/>
		<path class="st0" d="M105.7,148.2c0.7-0.8,1.6-1.5,2.8-1.9c1.4-0.6,2.6-1.6,3.6-2.7c1.5-3.3,0.8-5.9-1.4-8c-1.5-1-2.7,0.6-2.2,2.1
			l1.1,1.9c0.5,1.2,0.2,2.2-1,2.9c-2.4,1.2-4.4,2.5-5.7,3.8c-0.6,0.8-1.2,1-2,0.4L99,145c-0.6-0.8-0.1-1.4,0.7-1.1l1.3,0.6
			c0.7,0.4,1.2,0.2,1.4-0.6c0.1-1.4-0.5-2.6-2.1-3.4c-2.1-0.6-3.9,0.3-5.6,2.5c-1.6,2.4,2.7,4.7,5.4,7c1,0.6,1.9,0.6,2.7,0.2
			C104,149.8,104.9,149.1,105.7,148.2z"/>
		<path class="st0" d="M110.9,151c1.4,0.2,3,0.8,4.8,1.8c0.9,0.4,1.8-0.5,0.7-1.2c-3.5-2.1-6.8-3-9.8-2.2c-1.6,0.7-2.1,2.1-0.8,2.8
			l4.7,1.3l3.2,1.4c0.7,0.3,2-0.3,1-1.2c-1-0.8-2.4-1.4-4.2-1.9C109.5,151.3,109.7,150.8,110.9,151z"/>
		<path class="st0" d="M112.1,145.6c-1.6,3.4,3.9,4.9,6.1,5.5c1.2,0.1,1.8-0.8,1-1.3c-1.9-0.8-3.3-1.8-4.2-2.8
			c-1.2-2.5,1.8-2.2,3.1-1.7c0.9,0.4,1.5-0.3,0.9-1.2c-0.5-0.6-1.1-0.9-1.8-1.1c-1.2-0.3-2.3,0.1-3.2,0.8
			C113.1,144.4,112.5,145,112.1,145.6z"/>
		<path class="st0" d="M121.5,147.9c-1.4-0.9-2.8-1.6-4.4-2.2c-1-0.1-1.3,1-0.7,1.5c1.4,0.9,2.9,1.6,4.6,2.2
			C122.1,149.7,122.2,148.3,121.5,147.9z"/>
		<path class="st0" d="M117.6,159c0.7,0,1.4-0.1,2.2-0.2c2.2-0.9,4.4-1.3,6.6-1.4c1.4-0.1,1.4-1.6,0.1-1.9c-1.5-0.3-4.2,0.3-7.2,1.1
			c-1.1,0.3-0.9-0.7-0.4-1.3c1.6-1.8,3.9-3.1,6.6-3.9c1.2-0.4,0.8-2-0.4-1.9c-3.4,0.6-6.4,2.3-8.8,5.6
			C114.9,157.3,115.7,158.8,117.6,159z"/>
		<path class="st0" d="M122.1,153.6c-1.7,2.1,3.4,1.5,4.3,0.5C128,152.3,122.9,152.6,122.1,153.6z"/>
		<path class="st0" d="M117.2,142.1c1,0.2,1.4-0.1,0.9-0.9l-2-2.1c-0.5-0.6-0.3-1,0.5-1c0.7,0.1,0.8-0.3,0.5-0.9
			c-1-1.2-2.1-2-3.4-2.1c-0.7-0.1-1.1,0.2-1.2,0.7C112.3,138.3,113.6,140.5,117.2,142.1z"/>
		<path class="st0" d="M112.5,126.2c-0.6-0.3-0.8,0.1-0.9,0.6c-0.8,7.8,6.9,11.2,5.8,6.3c-0.3-0.7-0.8-1.3-1.4-1.8
			c-0.4-0.3-0.5-0.1-0.6,0.3c-0.3,0.9-1.4-0.3-1.4-1.9C114.2,127.6,113.4,126.9,112.5,126.2z"/>
		<path class="st0" d="M123.7,148.3c1.6,0.8,2.5-0.1,2.9-1.3c0.3-1.8,0-3.4-0.6-4.6c-0.5-0.7-1.6-0.8-1.6,0v2.3c0,0.7-0.5,1-1.2,0.4
			c-1.9-2-2.6-4.5-2.8-7.4c0.3-1.2-2.5-4-2.3-1.8C118.8,141,120.1,145.7,123.7,148.3z"/>
		<path class="st0" d="M134.4,153.4c-0.9-1.9-1.4-1.9-1.8-0.7l-0.2,3c0,0.9-0.3,1.3-1.2,0.7c-1.6-2.8-1.8-6.2-1.9-9.6
			c-0.1-2.2-1.9-3.1-1.9-1.1c-0.2,5.5,0.3,10.5,3.4,13.4C134.6,160.9,134.8,156.1,134.4,153.4z"/>
		<path class="st0" d="M129.9,149.6c-0.9,3.6,2.1,6.1,2.2,2.6l-0.3-2.5C131.3,148.6,130.2,148.4,129.9,149.6z"/>
		<path class="st0" d="M124,141.6c0.1-1-1.3-3.4-2.2-1.7C121.2,142,123.7,143.9,124,141.6z"/>
		<path class="st0" d="M143.2,56.5c-1,0.3-1.2,1.4,0.6,1.5s3.4,0.7,4.2,3c0.5,1.2-0.3,1.5-1.5,1.4c-0.5,0-0.8,0.5,0,1
			c1.5,1.3,4,0.4,3.2-2.5C148.3,57.1,145.8,56.6,143.2,56.5z"/>
		<path class="st0" d="M145.1,59.5c-0.6,0.2-0.6,0.7,0,1.4C146.4,62.3,147.1,59.6,145.1,59.5z"/>
		<path class="st0" d="M147.3,65.2c-1,0-1.4,1.4-0.2,1.7c2.1,0.2,3,1.7,3,4.4c-0.3,1.3-1.1,1.7-2.5,0.9c-1-0.4-1.5,0.2-1.2,0.9
			c0.2,1,3.6,2.4,4.6,1.5c1.2-0.8,1.4-2.5,1-4.5C151.6,66.9,149.9,65.4,147.3,65.2z"/>
		<path class="st0" d="M148.3,70.5c0.1-1.5-0.3-2-1.2-1.9c-0.6,0.3-1,0.8-0.5,1.8C147.4,71.3,147.9,71.3,148.3,70.5z"/>
		<path class="st0" d="M148.8,86.2c2.3-1.4,3.7-3.3,4.2-5.7c0.5-3.4-1.4-4.6-4.1-4.9c-1.9-0.4-2.8,1.2-1.7,2.1l2.1,1
			c1,0.4,1.1,1.2,0.3,2.5c-1.6,1.2-2.4,2.5-2.1,4C147.5,86.2,148,86.5,148.8,86.2z"/>
		<path class="st0" d="M147.2,81.4c1.2,0.3,1.7,0,1.8-0.8c0-1.4-0.7-1.8-1.9-1.4C146.3,79.7,146,80.7,147.2,81.4z"/>
		<path class="st0" d="M158.3,55.6c1.4,0,1.7-0.6,1.4-1.5c-5-8.7-11.2-9.9-17.6-9.9c-2,0.2-0.3,2.2,1.6,2.4c4.9-0.3,9,0.8,11.5,4.4
			c0.9,1.3,0.3,1.8-1.6,1.6c-0.5,0-0.7,0.1-0.3,0.6C154.5,54.5,156.2,55.2,158.3,55.6z"/>
		<path class="st0" d="M152.6,49.4c-0.8-0.4-2-0.5-3.5-0.4c-0.8,0.2-0.7,1,0.3,1.6c1.4,0.6,2.5,0.7,3.5,0.4
			C153.7,50.5,153.4,49.9,152.6,49.4z"/>
		<path class="st0" d="M163,50.8c-1.7-2.1-3.3-3.5-5.1-4c-1.2-0.3-1.4,0-0.9,0.7c2.3,3.3,5.2,6.1,9.4,7.6c1.5,0.4,2.2,0.1,2.1-1
			c-0.2-2.5-1.3-4.2-3.5-5c-0.6-0.2-0.8-0.2-0.5,0.4C165.2,51.7,164.1,51.9,163,50.8z"/>
		<path class="st0" d="M173.7,186.4c0.3-1.5-2.6-2-3.3-0.1c-0.5,2.4-1.4,4.4-2.9,5.6c-3.7,2.5-8.5,4-14.3,4.5
			c-2.6,0-4.5,1.1-5.6,3.3l-2,4.8c-0.3,1.1-0.9,1.6-1.7,1.6l-4.5-0.4c-0.9-0.1-1.2-0.5-1.1-1.3c0.1-3.9,0.7-7.7,1.9-11.2
			c1-2.1-0.8-6.4-2-3.5c-1.7,3-2.8,8.1-3.1,16.1c0,1.5,0.3,2.6,1.9,2.9l9.3,0.6c1.5,0,2.5-0.6,2.6-2.1c0.6-4.7,2.1-7.1,4.6-7.2
			c2.2-0.4,4.7-0.8,7.4-1.3c1.2-0.1,1.7,0.1,2,0.6c1.4,0.9,2.7,1.2,3.7,0.7c0.6-0.4,1-0.7,0.3-0.9c-1.1-0.5-0.9-1.7,0.3-3
			C172.3,193.4,174.2,190.8,173.7,186.4z"/>
		<path class="st0" d="M160.5,183.2c-3.5,0.8-1.7,5,0.5,3.4c1.4-1.4,2.6-2,3.8-2.3C163.3,183.5,161.9,183.1,160.5,183.2z"/>
		<path class="st0" d="M159.4,193c1.3-0.5,2.4-1.1,3.4-2.5c-1.2,0.1-2.5,0-4.4-0.7C155.7,189.3,155.9,193.8,159.4,193z"/>
		<path class="st0" d="M155.5,185.7c0.9-1.8,1.9-2.7,3-3.5c-1.7-0.3-3.3-0.2-4.6,0.4C150.6,184.6,153.9,187.9,155.5,185.7z"/>
		<path class="st0" d="M144.5,200.1c0.3-2,1-3.2,1.8-4.1c-1.6,0.2-3,0.7-4.1,1.7C139.8,200.5,143.7,202.8,144.5,200.1z"/>
		<path class="st0" d="M182.8,197.1c1.7-1.1,3-1.3,4.2-1.4c-1.2-1.1-2.5-1.8-3.9-2C179.5,193.7,180.3,198.2,182.8,197.1z"/>
		<path class="st0" d="M188.2,191.1c0.3-2,0.6-3.1,1.4-4.1c-1.6,0.3-2.7,0.8-3.8,1.7C183.6,191.5,187.5,193.7,188.2,191.1z"/>
		<path class="st0" d="M195.5,188.9c-1.6-0.3-3.1-0.2-4.4,0.4c-3,2,0.1,5.3,1.6,3C193.5,190.5,194.5,189.6,195.5,188.9z"/>
		<path class="st0" d="M190.9,197.4c1.3-0.5,2.4-1.1,3.4-2.5c-1.2,0.1-2.5,0-4.4-0.7C187.2,193.8,187.4,198.2,190.9,197.4z"/>
		<path class="st0" d="M152.9,192c0.7-1.3,1.1-2.5,0.9-4.1c-0.9,0.9-1.9,1.7-3.7,2.4C147.8,191.7,150.8,195,152.9,192z"/>
		<path class="st0" d="M132.7,182.8c-1.4,0.2-2.7,1-3.9,2.2c1.3,0,2.6,0.2,4.4,1.2C135.7,187.3,136.3,182.7,132.7,182.8z"/>
		<path class="st0" d="M122.1,179.2c1.7,2.3,4.6-1.3,1.4-3.2c-1.4-0.6-2.9-0.6-4.5-0.2C120.1,176.5,121.2,177.4,122.1,179.2z"/>
		<path class="st0" d="M116,177.1c-1.5,0-2.9,0.6-4.2,1.5c1.2,0.2,2.5,0.6,4.1,2C118.2,182,119.6,177.6,116,177.1z"/>
		<path class="st0" d="M119.2,184.1c-1.7,1-3,1.2-4.3,1.2c1.2,1.1,2.6,1.9,4,2.1C122.6,187.5,121.7,183.1,119.2,184.1z"/>
		<path class="st0" d="M124,184.6c3.4,1.4,4.2-3,1.5-3c-2,0.3-3.3,0-4.5-0.5C121.8,182.7,122.7,183.9,124,184.6z"/>
		<path class="st0" d="M98.7,178.7c3.2,1.9,4.5-2.5,1.8-2.9c-2,0.1-3.2-0.4-4.4-1C96.7,176.5,97.5,177.8,98.7,178.7z"/>
		<path class="st0" d="M89.2,179.6c3.3,1.7,4.4-2.8,1.7-3c-2,0.2-3.3-0.3-4.4-0.8C87.1,177.4,88,178.7,89.2,179.6z"/>
		<path class="st0" d="M85.6,170.3c-1.5-0.2-3.1,0.3-4.6,1c2.1,0.5,3.3,2.6,3.9,2.5C87.1,174.8,89.1,171.4,85.6,170.3z"/>
		<path class="st0" d="M68.1,159.7c0.4,2.4,4.3,2.3,3.3-1.3c-0.6-1.4-1.9-2.5-3.3-3.3C68.8,157.1,67.7,159.3,68.1,159.7z"/>
		<path class="st0" d="M65.7,155.9c-0.6-1.4-1.9-2.5-3.3-3.3c0.8,2.1-0.3,4.2,0.1,4.7C62.9,159.7,66.8,159.5,65.7,155.9z"/>
		<path class="st0" d="M64.6,160.6c-0.5-0.2-2.7-0.2-4.3-1.8c0.2,2.3,1.2,3.8,2.4,4.8C65.4,165.1,67.1,161.6,64.6,160.6z"/>
		<path class="st0" d="M69.4,168c2.6,1.9,4.6-1.4,2.3-2.7c-0.5-0.2-2.6-0.5-4.1-2.3C67.5,165.3,68.4,166.9,69.4,168z"/>
		<path class="st0" d="M138.9,177.4c-0.1-1.1-0.1-2.1,0-3.1c0.1-0.8-0.5-1.2-1.5-1.3c-5.6-0.6-7.8,6.4-3.7,9.4
			c1.2,0.7,1.7,0.3,1.2-1.3c-0.4-1.6,1-2,2.9-2C138.6,178.9,138.9,178.4,138.9,177.4z"/>
		<path class="st0" d="M143.7,191.1c1.2,0,1.8-0.7,1.1-1.1c-2.1-1.7-1.2-2.6,0.1-3.7c0.5-0.5,0.9-1.3,0.3-2.2
			c-0.9-0.8-1.4-1.5-1.8-2.3c-0.7-1.2-1.8-0.7-2.6-0.1C136.5,184.8,139.1,191.3,143.7,191.1z"/>
		<path class="st0" d="M174.6,189.6c-0.4,0.2-0.3,0.5,0.2,0.7c4.7,1.9,8.4-5.7,3.6-9.3c-0.7-0.6-1.4-0.7-2.2,0.1
			c-0.7,1-1.4,1.9-2.1,2.5c-0.5,0.9-0.3,1.6,0.6,2.1C176.4,186.8,176.4,188.1,174.6,189.6z"/>
		<path class="st0" d="M170.8,184.3c2.6-1.2,4.3-2.7,5-4.5c0.7-2.6-1.5-5-3.9-4.9c-4,0.4-4.9-3.7-7.1-4.3c-1-0.3-1.6-0.2-1.5,0.8
			c0.2,1.1,0.8,2.2,2.1,3.3c1.1,0.9,2.4,1.7,3.8,2.4c1.3,0.8,1.3,1.7-0.4,2.5c-0.8,0.4-1.5-0.1-2.1-1.2c-1.3-2.3-2.8-4.1-4.3-5.6
			c-0.4-0.4-0.9-0.3-1.3-0.1c-0.6,0.3-1.2,0.7-1.6,1.5c-0.5,0.6-0.8,0.6-1.1,0.3c-0.2-0.2-0.6-0.2-1.2,0c-2.3,1.3-4.5,3.1-6.6,5.4
			c-1.4,1.1-1.6,0-0.7-0.8c2.3-1.5,4.1-3,5.4-4.7c0.5-0.7,0.2-1.5-0.5-2c-1.3-0.8-2.9-0.7-4.7-0.2c-2.1,0.5-4,0.2-5.8-0.3
			c-1.4-0.4-2.6-0.1-3.3,1.1c-0.2,0.5-0.4,0.9-0.5,1.4c-0.1,1.2-0.2,2.4,0,3.6c0.1,0.4,0.3,0.8,0.5,1.3c0.6,0.8,1.4,0.6,2.5,0
			c1.1-0.7,1.9-1.7,2.1-3.6c0.1-0.4,0.4-0.6,0.9-0.8c2-0.7,3.8-1,5.2-0.7c0.8,0.2,0.8,0.6,0.1,1.1c-1.4,1-3.3,1.9-5.7,2.7
			c-1.3,0.6-2.1,1.8-1.9,3.9c0.1,0.9,0.8,2.1,2.7,3.5c1.8,1.1,3.7,0.3,4.7-1.7c0.1-0.5,0.7-1,1.6-1.4c1.5-1,2.7-2.2,3.9-3.4
			c0.9-0.7,0.9,0.2,1.2,1.3c0.9,1.7,2,1.3,3.3-0.2c0.9-0.9,0.9-0.2,0.8,0.7c-0.1,0.9,0.2,1.2,0.7,1c0.3-0.4,0.9-0.3,1.6,0.2l2.4,2.2
			C168.3,184.8,169.5,184.9,170.8,184.3z"/>
		<path class="st0" d="M149.8,167.3c-0.5,0.5-0.9,0.6-1.3,0l-3.7-5.5c-0.8-0.9-2.6-0.3-1.9,1.2l4.2,6.3c1.7,2.2,4.6,1.6,4.1-1.5
			C151,166.9,150.2,166.5,149.8,167.3z"/>
		<path class="st0" d="M157,172.7c1.4,0.5,2.3,0,2.6-1.5c0.4-1.7,0.2-3.6-0.5-5.6l-3.2-8.2c-0.5-1.2-1-1.2-1.5,0.2
			c-0.3,1.2-0.2,2.5,0.8,4.4c0.7,1.2,1.3,2.7,2.1,4.3c0.9,2.4-0.6,3.4-1.7,2.2l-3.3-5.2c-1-2-2.1-3-3.2-3.4c-1.5-0.6-2-0.3-1.3,1
			C151,165.2,152.3,170,157,172.7z"/>
		<path class="st0" d="M154.8,166.5c0.3,0.8,2.3,0.1,1.3-1.4l-2.5-4.3c-0.8-0.8-1.5,0-1.2,1L154.8,166.5z"/>
		<path class="st0" d="M163.2,168.9c1.4,0.4,2.3,0.3,2.2-1.1c-0.3-4-1-7-1.8-9.4c-0.4-1-0.6-1.9-0.6-2.6c0.2-1.2-0.6-1.5-1.4-0.7
			c-0.6,0.9-0.8,2.1-0.3,3.7l1.6,4.7c0.5,1.8-0.4,1.6-0.8,0.9c-0.6-1.1-1-2.5-1.2-4.3c-0.4-2.1-1-2.4-1.7-2.7
			c-0.9-0.2-1.1,0.1-1,0.7C159,162.8,160.2,167,163.2,168.9z"/>
		<path class="st0" d="M150.3,138.1c-0.3,0.9-0.2,2,0.5,3.5c2.3,5,4.1,11.3,6.4,13.4c1.3,1,2.4,0.7,3.2-0.8
			c2.1-3.6,0.3-16.4-2.3-21.7c-0.7-1.7-2.6,0.7-2,2.1c2,4.4,3.2,9.2,2.7,15.1c-0.1,1.8-1.3,1.7-1.8,0.7c-2-3.5-3.5-8.9-5.4-12.8
			C151,136.6,150.6,136.8,150.3,138.1z"/>
		<path class="st0" d="M157.9,146.2c-0.1-5.2-1.7-8.8-4.2-11.3c-1.3-0.7-2,0.5-1.4,1.6c1.6,2.9,3.1,6.1,4.1,10.2
			C156.7,147.6,157.8,147.6,157.9,146.2z"/>
		<path class="st0" d="M146.7,141.2c1.2,4.5,3.3,7.6,4.4,12.2c0.4,1.9-0.7,2.2-1.5,1.2c-3.2-3.5-5.3-9-7.7-12.3
			c-1.5-2-2.8-0.4-2.1,1.4c2.3,5.1,5.5,10.1,10.3,14.8c1.1,0.7,3,0.5,3.5-1.8c0.5-5-1.1-10.7-4.4-16.8
			C148.5,138.9,146.3,139.7,146.7,141.2z"/>
		<path class="st0" d="M148.8,150.2c-1.4-5.4-3.7-9.2-6.9-11.4c-0.9-0.5-1.5,0.2-0.9,1c2.3,3,4.5,6.5,6.6,11.4
			C148.1,152.2,149.2,151.9,148.8,150.2z"/>
		<path class="st0" d="M145.1,157.2c-0.1-4.9-3.7-9.2-7.3-13.4c-1.4-1.1-2.1,0.1-1.5,0.7c2.3,2.9,4.5,6.1,6.4,9.8
			c0.9,2.4-0.9,3-1.8,1.9c-3.3-5.1-6.8-9.4-10.3-13.4c-1.1-1.1-2.4,0.1-1.3,1.2c3.7,4.5,7.4,9.1,11.1,14.6
			C142.4,160.9,145,160.3,145.1,157.2z"/>
		<path class="st0" d="M131.7,142.8l8.6,11.2c0.8,0.7,1.9,0.4,1-1.1l-8.5-11.8C131.8,140,131.1,141.4,131.7,142.8z"/>
		<path class="st0" d="M171.9,54.7c-0.2-1.4-0.9-2.4-1.9-3.1c-1-0.5-1-0.2-0.6,0.5c0.3,0.6,0.5,1.1,0.3,2.3
			c-0.2,0.6-0.2,1.1,0.3,1.7c1.3,1.2,5,4.3,6.1,3c1.5-1.5,0.8-3.8-1.2-4.8c-0.5-0.3-0.7-0.3-0.6,0.2C174.4,56.7,172,56.2,171.9,54.7
			z"/>
		<path class="st0" d="M157.7,61.3c-0.6-0.1-0.9,0.1-0.4,1.2c3,3.1,8.4,2.9,5.1-3.6c-0.4-0.4,0.6-0.5-1.7-2.7
			c-0.3-0.4-0.7-0.5-0.8-0.1c0,0.3-0.4,0.5-0.9,0.5c-0.9,0.1-2,0-3.1-0.2c-1.1-0.3-0.8,1.5,0.6,1.9
			C162.4,58.9,161.1,62.5,157.7,61.3z"/>
		<path class="st0" d="M159.8,68.2c4.8,1.9,1.9,7-0.1,3.8c-0.5-0.6-1.2,0.2-0.7,1.8c2.5,5,8.2,5.1,6.4,0c-1.1-2.7-1.3-4.9-1.2-7
			c0.1-1.5-0.7-1.3-1.5-0.9c-1.4,0.6-2.5,0.1-3.6-0.6c-0.7-0.6-1.7,0.6-0.9,1.4L159.8,68.2z"/>
		<path class="st0" d="M155.5,115.2c-1.2-3-2.7-5.7-4.4-8.1c-0.8-1.2-2.1,0.2-1.3,2c2.3,3.4,5.4,10.1,7.3,13.1
			c1.2,1.5,2.1,0.6,2.2-1c0-5.3-2.6-11.6-6.8-18.6c-0.6-0.8-1.6,0.9-0.9,2c1.7,2.7,3.3,5.9,4.6,10.2
			C156.6,116,155.9,116.2,155.5,115.2z"/>
		<path class="st0" d="M144.4,118.8c1.7,4.2,3.5,8.3,5.7,12.4c3.3,5,8.8,0.1,6.2-7.3c-1.5-4.1-4-8.6-7-13.4
			c-0.9-1.1-2.5-0.2-1.6,1.9c2.5,4,4.8,8.3,6.6,13.3c1.3,3.5-1.4,5-2.6,3c-2.3-3.9-4-7.8-5.5-11.7
			C145.1,115.5,143.6,116.8,144.4,118.8z"/>
		<path class="st0" d="M153,123.8l-5-10c-0.9-2.1-2.2,0.9-1.6,2.4l4.8,9.5C151.7,126.7,153.9,125.8,153,123.8z"/>
		<path class="st0" d="M134.5,124.2l7.3,12.5c3.4,5.3,10.3,0.9,7.1-5.5c-2.1-4-3.8-8-5-11.7c-0.8-2.6-3.3-0.7-2.5,0.7
			c1.3,3.9,3.2,8.1,5.3,12.5c1.5,3.2-1.4,4.5-2.9,2.3c-2.5-3.2-4.8-8.4-7.3-12.3C135.4,121,133.2,122.7,134.5,124.2z"/>
		<path class="st0" d="M137.9,121.6l5.3,10.7c0.9,1.5,2.9,1.2,1.7-1.6l-5.7-11.8c-0.5-1.2-1.6-0.7-1.4,0.5
			C138,119.9,137.1,120.3,137.9,121.6z"/>
		<path class="st0" d="M139.6,137.5c-1.3-4.8-4.4-9.5-6.8-13.5c-0.9-1.3-3.6-1-2.4,0.5c2.4,3.7,4.7,7.7,6.7,12.4
			c0.8,1.4-0.8,3.2-1.9,1.7c-3.8-4.4-6.9-8.9-9.7-13.3c-1.1-1.1-3.1-0.2-2.1,1.6c2.7,4.7,6.2,9.5,10.3,14.2
			C135.2,143.1,141,143.7,139.6,137.5z"/>
		<path class="st0" d="M134.9,134.4c-2.5-4.3-5.1-8.3-7.8-12c-0.6-0.8-1.4,0.2-1.2,1.1c1.4,4.1,4,8.1,7.8,12.2
			C134.8,136.5,135.5,135.6,134.9,134.4z"/>
		<path class="st0" d="M129.9,139.2c-2.1-4.5-5.4-9-9.2-13.5c-0.9-1.1-2.5-0.8-1.7,0.6c2.3,3.1,4.4,6.2,6.1,8.9
			c0.5,0.8,0.2,1.3-0.7,0.7c-3.5-4.4-6.6-8.8-9.5-13.2c-1-1.4-3.1,0-2.3,1.5c4,6.4,9,14.9,15.6,17.1
			C129.9,141.6,130.6,141,129.9,139.2z"/>
		<path class="st0" d="M146.4,91l-0.3-9.8c-0.4-2.1-2.3-1.5-2.3,0.5c0,2.9,0,5.8,0,8.7c0.3,2.6-1.1,2.9-1.7,4.5
			c-0.4,2-0.2,2.9,1.1,2.2C145.1,95.3,146.5,93.4,146.4,91z"/>
		<path class="st0" d="M135.4,84.8c-1.4,3.8-2.1,8-1.9,12.4c0.9,4.5,6.5,3.3,8.2-1.5c1.1-4.7,1.2-9,1-13.1c-0.1-2.6-2.3-1.8-2.2,0
			c0.1,4.8,0,9.1-1.2,11.8c-1.6,2.6-3.2,3.2-3.4,0.8c0-3.6,0.5-6.8,1.2-9.9C137.2,83.7,135.8,83.7,135.4,84.8z"/>
		<path class="st0" d="M138.7,93.7c0.9-2.9,1.1-6.6,0.7-10.6c-0.3-1.6-1.3-1.1-1.6,0.1l-0.7,10.5C137.2,94.7,138.5,94.7,138.7,93.7z
			"/>
		<path class="st0" d="M126.8,88.2c0.3-1.2-1.2-2.3-2.1-0.4c-0.8,3-2.2,5.6-3.4,9c-0.4,1-0.6,1.6-0.3,2.7c0.9,1.3,2.4,1.8,4.4,1.8
			c3.8-0.3,6.1-1.7,6.4-4.4l1.7-10.2c0.1-1.9-1.9-2.5-2.5-0.3l-1.5,7.7c-0.6,3.1-2,4.5-4.3,4.3c-1.4-0.1-1.4-1.2-0.8-2.6L126.8,88.2
			z"/>
		<path class="st0" d="M128.1,86.6c-0.5,3.1-1,5.9-1.7,8.4c-0.4,1.3,1.2,2.2,2.2,0.1c0.7-2.7,1-5.6,1.4-8.5
			C129.9,84.9,128.3,85.5,128.1,86.6z"/>
		<path class="st0" d="M114.2,99.1c2.4,1.2,4.5,0.9,6.1-1.7l3.1-8.2c0.4-1.7-0.8-2.1-1.3-1c-1.2,3.1-2.5,5.8-3.8,8
			c-1.4,1.8-3.5,0.6-2.5-1.4c1.3-2.3,2.5-4.8,3.3-7.3c0.4-1.6-1.1-1.8-1.5-0.6c-1.1,2.6-2.5,5.2-4.1,7.7
			C112.5,96.4,112.3,98,114.2,99.1z"/>
		<path class="st0" d="M118.1,95.3c1.6-2.3,2.6-4.6,3.1-6.8c0-2-1.6-1.5-1.7-0.6c-0.6,2.2-1.7,4.4-2.9,6.5
			C116,95.6,117.1,96.5,118.1,95.3z"/>
		<path class="st0" d="M114.6,87.5c-1,1.9-2.1,3.6-3.2,5.2c-0.5,0.8-0.1,1.8,1.1,1.3c1.6-1.6,2.8-3.6,3.5-5.9
			C116.2,86.9,115,86.6,114.6,87.5z"/>
		<path class="st0" d="M107.6,95.3c0.7,1.1,1.6,1.8,2.9,2.1c0.9,0,1.8-0.8,1.1-1.7l-1.3-1.1c-0.6-0.4-0.3-1,0.1-1.6
			c1.3-1.4,2.4-2.8,3-4c1-1.8-0.5-2.6-1.2-1.4c-1.4,2-2.8,3.7-4.2,5.1C107.5,93.5,107.1,94.3,107.6,95.3z"/>
		<path class="st0" d="M106.8,98.1c-2.8,3.8-3.3,6.6-2.9,10.6c0.6,3,1.9,5,2.9,7.9c0.4,1,0.6,2.4,0.6,4.4c0.1,1.1,1.2,1.4,3.3,0.9
			c2.4-0.8,3.6-2.2,2.8-4.7c-3.4-8.6-2.7-12.8-0.2-16.1c0.8-1.5-1-2.9-2.2-1.5c-1.8,1.8-2.4,3.4-2.7,6.9c-0.1,2.8,1.3,5.6,2,9.5
			c0.3,1.1-0.8,2-1.4,0.2c-1-3.8-2.3-6.4-2.4-9c-0.1-3.1,0.6-4.4,2.5-7.5C110.3,97.7,107.8,96.7,106.8,98.1z"/>
		<path class="st0" d="M113,113.2c0.5,3.1,1.8,6.4,4.3,9.8c2.7,2.5,7,1.3,7.7-1.9c0.3-1.4-0.3-2.6-0.7-3.9
			c-1.2-4.8-0.9-8.9,0.2-12.7c0.7-1.9-2-2.2-2.6-0.9c-1.4,3.6-1.9,8.1-0.4,14.4c0.5,2.3-1.6,3.4-2.9,1.7c-4.1-7.2-3.9-12.6-1.6-16.9
			c0.9-2-1.2-3.2-2.4-1.5C111.9,105.2,112.3,109,113,113.2z"/>
		<path class="st0" d="M118.5,101.7c-1.9,4.4-2.3,9.3,0.3,15.3c0.5,0.9,2,0.8,1.5-1.2c-1.5-7.2-0.9-11,0.6-13.2
			C121.4,100.9,119.3,100.1,118.5,101.7z"/>
		<path class="st0" d="M135.7,102.8c0.2-1.8-2.4-2.3-2.6-0.8c-0.9,3.2-1.2,7.2-1,11.8c0,1.1,0.6,2.8-0.2,3.7c-0.8,0.9-2,0.7-3-0.8
			c-1.3-3.4-1.4-7.6-0.4-12.6c0-1.9-2.2-1.8-2.6-0.3c-1.4,4.1-1.3,8.9-0.4,13.7c1.1,5.5,9.4,6.6,10.3-0.1
			C135.1,111.7,135.1,106.9,135.7,102.8z"/>
		<path class="st0" d="M129.8,102.6c-0.8,3.8-1.1,7.8-0.8,11.9c0.4,1.4,2.3,1.5,2.5-0.4c-0.4-3.6-0.3-7.4,0.2-11.5
			C131.7,101.5,130.2,101.3,129.8,102.6z"/>
		<path class="st0" d="M141.3,101.5c1,3.2,1.6,6.6,1.2,10.1c-0.5,2-2.6,2.1-3.1,0.4c-0.8-3.6-0.8-6.7-0.7-9.8
			c-0.3-1.7-2.7-1.6-2.6,0.2c-0.2,4.8-0.3,9.5,1.7,13.6c1.9,2.5,5.1,1.7,7.3-2.8c1.2-4-0.1-8.9-2.4-14.2
			C141.5,97.7,141,99.6,141.3,101.5z"/>
		<path class="st0" d="M139.2,101c0,2.9,0.1,5.8,0.8,8.7c-0.1,0.7,1.6,1.7,1.7-0.4c-0.5-3.1-0.7-5.7-0.8-8.1
			C140.5,99.5,139.3,99.9,139.2,101z"/>
		<path class="st0" d="M147.1,95.4c-0.1,2.6,1.4,3.9,1.3,6.4c-0.1,0.5-0.4,0.8-1.1,0.5c-1.1-0.2-1.7-3.3-0.7-2.7
			c0.6,0,0.9-0.3,0.6-1l-0.4-1.3c-0.6-0.8-1.4-0.7-2.2-0.2c-0.9,0.3-1,1-0.8,1.9c0.3,2.5,1.3,4.9,3.1,7.4c0.8,0.7,1.6,0.4,2.4-0.6
			c2.1-4.2,1.3-7.8-0.9-11C147.6,94.1,147.2,94.3,147.1,95.4z"/>
		<path class="st0" d="M150.6,94c0.6,1.5,3.2,3.2,1.6,4.7c-0.6,0.4-0.5,0.9-0.2,1.4c0.5,0.9,1.3,1.3,2.6,0.5l1.8-2.2
			c0.6-0.7,0.2-1.4-0.4-1.3c-1.6-0.2-2.4-3.3-4.2-4.1C151,92.5,150,93.1,150.6,94z"/>
		<path class="st0" d="M156.3,92.7l-2.1-1.9c-1.2-0.7-2.1,0.7-1.4,1.6c0.8,1.2,1.8,2.4,3.1,3.6c0.8,0.7,1.6,0.9,2.5,0.1
			c1.5-1.9,3.3-2.7,4.2-5c0.2-1,0-1.5-0.9-1.5c-1.7-0.2-2.9-1.4-4-2.5c-0.9-0.8-2.3,0.4-1.7,1.6l2,2.4
			C158.5,92.2,157.1,93.3,156.3,92.7z"/>
		<path class="st0" d="M160.5,83.7c-0.4-0.7-0.9-0.6-1.4-0.2c-1.1,0.9-1.2,1.8-0.6,2.6c2.1,2.5,4.1,3.5,5.9,0.9
			c0.7-1.4,1.2-3.2,1.5-5.4c0.1-0.6,0-1-0.2-1.2c-0.3-0.3-0.9-0.5-1.3-0.7c-1.4-0.8-2.5-1.8-3.7-2.8c-0.4-0.4-0.6-0.3-0.8,0.4
			c-0.2,0.9-0.2,1.7,0.4,2.2l1.9,1.8C163.4,83,162.2,85.6,160.5,83.7z"/>
		<path class="st0" d="M196.4,182.4c-0.1-1.9-3.9,0.1-3.8-3.3c0.1-1.5,0.4-1.5-0.8-1.1c-2.4,0.9-2.3,2.2-3.3,3.7
			c-1.6,1.4-2.6,1.1-3.4-0.5c-0.2-1.2-0.5-1.3-1.3-0.1c-1.4,1.8,0.2,3.7-1.6,6.6c-2.2,3.8-4.6,5.1-7.3,4.3c-1.5-0.5-2.2,1.8-1.3,2.3
			c3.4,1.3,6.6,0.5,9.3-2.9c3.5-4.9,7-9.5,10.8-7.5C195.1,186.3,197.3,184.9,196.4,182.4z"/>
		<path class="st0" d="M196.5,203.1c0.6-0.6,0.9-0.8,0.1-0.8c-0.5-0.1-0.9-0.4-1.2-1.3c-0.1-0.7,0-0.7,0.6-0.9
			c1.3-0.4,2.7-0.9,4.1-2.1c0.3-0.4,0.7-0.5,1.3-0.5c2.3,0,3.3-0.7,3.6-1.7c0.2-1.3,0.4-1.1-0.6-1c-2.4,0.3-3-0.6-2.1-2.6
			c0.3-0.9,0.2-0.8-1.1-0.8c-2,0.3-2.5,1.1-2.6,2.4c0.1,0.7-0.2,1.2-0.9,1.5c-13.2,6.5-18.4,2.2-26.9,0.6c-2.6,0.2-2.9,1.6-1.9,2.4
			l3.8,1.3c1,0.2,1.8,0.7,1.8,1.7c0.5,2.1,1.5,3.2,3.1,2.9c0.9-0.2,1.2-0.4,0.6-0.6c-0.4-0.1-0.5-1.1-0.3-1.7
			c0.2-0.5,0.5-0.5,1.2-0.3c3.6,0.7,7.3,0.8,10.9,0.2c0.4-0.1,0.9-0.1,1.2,0.3C193.1,203.7,195,204.3,196.5,203.1z"/>
		<path class="st0" d="M206.3,188c2.9-4.3-2.3-10.3-6.8-6.7c-3.1,2.6-5.1,5.4-2.9,8.6C199.2,191.7,202.3,191.6,206.3,188z
			 M200.3,183.4c2.5-2.1,5.2-0.5,4.1,2.3c-1.5,2-3.9,2.6-5.6,1.9C197.7,186.7,198.2,185.3,200.3,183.4z"/>
		<path class="st0" d="M211.7,183.4c-0.7,0.1-1.4,0.3-2.3,0.7c-1.1,0.2-1.2,1.9-0.3,2.4c1.3,0.5,2.2,0.7,2.8,0.8
			c0.9,0.1,1.3-0.3,1.2-1.1c-0.1-0.5-0.1-1.1,0-1.6C213,183.5,212.5,183.2,211.7,183.4z"/>
		<path class="st0" d="M208.7,183.2c0.8-0.1,1.8-0.4,3.1-1.4c0.4-0.4,0.5-0.7,0.2-1.3c-0.6-0.8-1-1.4-1.2-1.7
			c-0.5-0.6-0.8-0.8-1.6-0.1c-1.2,1-1.6,1.7-1.8,2.2C207,182.1,207.1,183,208.7,183.2z"/>
		<path class="st0" d="M208.8,178.3c0.5-0.5,0.3-1-0.3-1.4s-1-0.7-1.2-1c-0.7-0.7-1.3-0.7-1.8,0.2c-0.4,0.5-0.7,1.1-0.8,1.8
			c-0.3,1.5,0.2,2.4,2,2C207.6,179.5,208.3,179,208.8,178.3z"/>
		<path class="st0" d="M216.4,179c1.6,0.2,2.4-2.4,1-3.9c-1.4-1.9-3.5-1-3.7,0.3c0,0.9-0.5,1.6-1.6,2c-1.2,0.7,0,3.6,1.5,2.5
			C214.2,179.1,215.1,178.7,216.4,179z"/>
		<path class="st0" d="M113.9,191.3c4.1,1.1,5.8,2.3,3.1,3.7c-0.6,0.1-0.8,0.3,0.3,0.7c4,1,4.4-3.6,9.2-1.6c1.2,0.5,1.7,1.1,0.9,2
			c-0.6,0.2-0.7,0.5,0.2,0.7c2,0.3,3.5-0.5,4.4-2.9c0.7-1.1,1.3-1.3,3.1-2c0.8-0.8,1.1-1.5,1.3-2.7c0.2-1.1-0.3-1.6-1.3-1.1
			c-8,4.4-16.6,1.9-26.7-2.3c-1.7-0.7-2-2.1-1.8-3.8l2.5-7.2c2.9-5.8,10.6-3.1,20.8,4c1.2,1.2,1.7-1.3,0.8-2.3l-2.5-2.1
			c-0.6-0.7-1-1.4-0.9-2.1c-0.2-2.5-1.2-3.3-2.3-3.7c-0.6-0.2-0.8-0.2-0.8,0.6l-0.2,1.7c-0.3,0.6-0.7,0.5-1.2,0.5
			c-7-0.7-5.5-6.6-10.1-5.9c-1.2,0.2-1.1,0,0.4,1.3c0.6,0.6,0.8,1.5-0.7,2.1c-0.7,0-1.3,0.1-1.8,0.3c-2.1,1-2.7-1.9-6-0.9
			c-0.5,0.3-0.8,0.6,0.1,0.8c1.3,0.8,1.9,2,1.3,4l-3.1,8.9c-0.4,2.1-0.5,4.2,1.7,6.5c2.9,1.1,3.7,2.2,1.6,3.3
			c-0.7,0-0.7,0.2,0.1,0.8c1.9,0.9,3.3,0.3,4.6-0.8C111.6,191.1,112.7,190.9,113.9,191.3z"/>
		<path class="st0" d="M104.4,173.9c-1.1-1.9-2.5-3.4-4.3-4.4c-1.4-0.7-2.2,0.8-1.3,1.7c1.4,0.9,2.7,2.3,4.1,4.2
			C103.7,176.1,104.9,175,104.4,173.9z"/>
		<path class="st0" d="M74.4,174.9c0,2.2,0,3.8-1.6,4c-0.8,0.1-0.8,0.3-0.1,0.8c1.4,0.8,2.9,1.2,4.6,0.2c0.4-0.3,0.7-0.5,1.2-0.2
			l5.8,2.8c1.1,0.5,1.4,1.1,0,2c-0.5,0.2-0.6,0.3-0.1,0.5c1.8,0.8,3.5,0.6,5-0.6c0.4-0.3,0.9-0.4,1.4-0.3c3.9,0.2,7.4,0,10.3-0.9
			c1.8-1.3,1.3-3.7-0.6-3.1c-8.4,2.5-15,0-21.1-4c-1-0.4-1.2-1.5-0.8-3.2c0.9-2.8,2.1-5.3,3.7-7.2c0.3-0.5,0.7-0.7,1.1-0.6
			c2.6,0.4,4.2,0,4.2-1.7c-0.1-0.9-0.4-0.8-0.7-0.6c-3.3,0.5-4.1-3.6-6.7-2.7c-0.5,0.1-0.6,0.3-0.1,0.4c0.9,0.9,1.1,1.8-0.1,2.9
			C76.4,166.7,74.9,170.6,74.4,174.9z"/>
		<path class="st0" d="M97.7,168.6c1.7-7.1-5.5-8.8-8.1-6.1c-2.4,2.3-2.1,8.6,1,11C93.8,174.5,96.2,172.9,97.7,168.6z M94.5,167.6
			c-0.9,3-2.2,3.6-3.8,2.3c-0.8-2.3-0.6-4.1,0.3-5.5C92.4,162.6,95.7,163.8,94.5,167.6z"/>
		<path class="st0" d="M102,161.2c0.4-0.8,0.3-1.4-0.4-1.9l-1.4-1.1c-0.6-0.4-1.2-0.2-1.8,0.7c-0.6,0.7-0.8,1.5-0.8,2.5
			c0.2,1,0.8,1.4,1.8,1.3C100.2,162.5,101.1,162,102,161.2z"/>
		<path class="st0" d="M97,156.6l-1.8-0.7c-0.9-0.2-1.5,0-1.4,1.3l0.1,2.5c0.5,1.1,1.4,1.2,2.6,0.4c0.4-0.4,0.7-0.8,1.2-1.4
			C98.3,157.6,98.1,156.9,97,156.6z"/>
		<path class="st0" d="M91.8,156c-0.6,0.1-1.2,0.2-1.8,0.2c-0.7,0.1-1.3,0.3-0.9,2.1c0.5,1.5,2.3,3.9,3.6,1.6
			c0.3-0.5,0.3-0.8,0.3-1.3c0-0.3,0-0.6,0.1-1C93.2,156.1,92.7,155.7,91.8,156z"/>
		<path class="st0" d="M61.4,171.9c-0.7,0.2-0.9,0.4-0.1,0.8c1.7,1.1,3.3,1.1,4.7-0.5c0.3-0.4,0.7-0.5,1.3-0.3c2.1,0.6,4,1,5.8,0.6
			c1.2-0.5,1.2-2.1-0.3-2.2c-8.1-1.4-13.1-5.5-16.3-11c-0.8-1.5-0.6-2.8,0.3-4.1c1.5-2.1,3.5-3.5,5.8-4.6c1.7-0.8,3.1-0.7,4.3,0.3
			c4.6,4.3,6.5,8.6,7.9,13c0.2,2.2,2.2,2.2,2.6,0.2l-0.5-2.6c-0.2-0.9-0.1-1.4,0.1-1.8c2-2.5,1.9-4.4,0.5-5.9
			c-0.5-0.6-0.7-0.9-0.8-0.1c-1,2.6-1.9,2.5-2.9,0.8c-2.1-3.2-4-4.9-5.7-6.2c-0.8-0.5-1.1-1-0.9-1.5c-0.4-3.2-1.7-3.3-2.9-3.6
			c-1.2-0.1-0.9,0-0.6,0.6c0.6,1.8-0.3,3-2.4,3.6c-3.8,1.4-6.9,3.8-8.8,7.7c-0.5,1.3-1.4,1.3-2.8,0.3c-0.6-0.9-0.8-0.5-0.8,0.6
			c0.1,1.9,0.9,3.3,2.7,3.8c0.6,0,1.1,0.2,1.4,1.1c0.5,1,1.2,2,2.2,3c1.2,1,0.4,1.4-1.3,1.6c-0.8-0.3-0.8,0-0.1,0.8
			c0.8,1,2.1,1.4,3.9,1.4c0.6-0.2,1.1,0,1.6,0.4l2.6,1.6C63,170.5,62.8,171.2,61.4,171.9z"/>
		<path class="st0" d="M55.5,149.2c4.3,0.6,5.8-4.9,3-9.1c-3.1-4.5-7.2-3.9-9.1-0.5C47.9,142.7,50.4,147.8,55.5,149.2z M55.8,141.9
			c1.3,3.4,0.7,4.6-1.1,4.4c-1.9-0.8-2.9-2.4-3.3-4.7C51.5,139.2,54.5,138.4,55.8,141.9z"/>
		<path class="st0" d="M55.8,135.3c0.4-0.7,0.6-1.5,0.7-2.4c0.1-0.9-0.3-1.3-0.9-1.5c-0.9-0.4-1.8-0.4-2.7-0.2
			c-0.7,0.2-0.9,0.8-0.8,1.8C52.4,135.7,54,137.5,55.8,135.3z"/>
		<path class="st0" d="M51.8,133c0.2-2.7-5.9-0.8-4.1,1.4C49.9,138.3,52.7,137.5,51.8,133z"/>
		<path class="st0" d="M44.3,137.6c3.1,2.9,6.7,1.1,2.9-2.9C46.2,133,42.9,136.8,44.3,137.6z"/>
		<path class="st0" d="M45.7,129.2c0.7,0.2,1,0.6,1,1.3c0.8,2.5,4.1,0.7,2.4-1.6c-0.2-0.3-0.2-0.8,0.1-1.4
			C50.3,121.5,39.6,125.5,45.7,129.2z"/>
		<path class="st0" d="M100.9,187.8c-3-3.7-10.1-0.1-6.4,5.7C98.4,198,104.7,192,100.9,187.8z M98.8,191.9c-1.4,1.2-3.8-0.5-2.2-2.6
			C98.1,188,100.4,190.1,98.8,191.9z"/>
		<path class="st0" d="M82,201.9c-3-3.7-10.1-0.1-6.4,5.7C79.5,212,85.8,206,82,201.9z M79.9,205.9c-1.4,1.2-3.8-0.5-2.2-2.6
			C79.2,202,81.4,204.2,79.9,205.9z"/>
		<path class="st0" d="M172.7,221.9c3.9,4.5,10.2-1.5,6.4-5.7C176.1,212.5,169,216.1,172.7,221.9z M177,220.3
			c-1.4,1.2-3.8-0.5-2.2-2.6C176.3,216.3,178.5,218.5,177,220.3z"/>
		<path class="st0" d="M108.8,202.4c-3.5-2.1-5.3-4.4-6.6-6.7c-1.1-1.9-2.9-0.3-2.3,1.3c1.7,3.3,4.3,6.4,8.5,7.3
			C109.7,204.3,109.8,203.2,108.8,202.4z"/>
		<path class="st0" d="M101,218.9c2.5,0.6,4.8,1.2,6.6,2.3c0.8,0.3,1-0.1,1.1-0.7l0.1-1.8c-0.2-0.7-0.4-0.8-1-1
			c-2.2-0.6-4.6-0.8-6.8-0.9C100,216.9,99.6,218.5,101,218.9z"/>
		<path class="st0" d="M95.2,217.7c-0.5-0.5-1.1-0.6-2-0.3c-2.3,0.7-2.9,1.3-4.1,1.8c-0.9,0.4-0.9,0.9,0,1.4c15.7,4.5,10.6-14-1.8-4
			c-1.3,1.7,0.7,2.4,3.1,1.2c1.6-1.2,3.2-1.9,4.8-1.7C97.5,216.3,96.1,218.5,95.2,217.7z"/>
		<path class="st0" d="M65.6,183.7c-2,0.6-0.9,2.2,1.8,2.8c2,0,3.7,0.5,4.9,1.6c1.7,1.5-0.7,2.4-1,1.3c-0.1-0.7-0.5-1.1-1.5-1.5
			c-2.3-0.9-3.1-0.8-4.4-1c-1-0.2-1.2,0.2-0.8,1.1C74.6,200.8,81.7,183.2,65.6,183.7z"/>
		<path class="st0" d="M182.1,207.4c1.5-0.6,3.2-0.4,5.1,0.3c2.7,0.5,4.3-0.7,2.6-2c-14.5-6.3-14.3,12.9-0.6,4.3
			c0.7-0.7,0.6-1.2-0.4-1.3c-1.3-0.2-2-0.6-4.4-0.6c-1,0-1.5,0.3-1.9,0.9C181.9,209.9,180,208.2,182.1,207.4z"/>
		<path class="st0" d="M175.6,206.6c-4.3,1.2-8.6,1.4-13.1,1c-1.7,0.1-2.2,2.2,0.3,2.6c7.1,0.6,11.6-0.1,14.2-1.6
			C178.8,207.6,177.1,205.8,175.6,206.6z"/>
		<path class="st0" d="M176.4,209.9c-8.7,1.6-13.3,4.1-7.4,8.1c1.4,0.6,3.1-0.4,2-1.7l-0.7-1c-0.5-0.5-0.1-0.9,0.8-1.1l6.4-2.1
			C178.7,211.7,178.2,209.6,176.4,209.9z"/>
		<path class="st0" d="M163.5,223.2l6.4-1.5c1.5-0.7,0.4-3-1-2.7l-6.8,1.6C160.8,221.1,161.4,223.7,163.5,223.2z"/>
		<path class="st0" d="M99.1,214.3c0.1,1.2,0.6,1.7,2.4,1.2c5.5-5.3-2.6-10.3-15.9-11.8c-1.8,0.1-2,1.9-0.3,2.5
			c6,1.3,11.3,2.7,14,4.8C101.6,212.9,99.1,212.6,99.1,214.3z"/>
		<path class="st0" d="M77,192.2c-1.5-0.5-1.9,1-0.9,1.8c2.4,1.8,5.3,3.3,6.9,5.2c0.5,0.4,0.6,0.8,0.1,1.2c-0.4,0.6-0.3,1,0.1,1.2
			C87.2,204.1,90.6,198.5,77,192.2z"/>
		<path class="st0" d="M87.7,196.6c3.5,1.5,6,3,7.8,3.1c3.6,0.2,4-2.6,2.1-3.7c-2-1.1-0.5,1.5-3.2,0.7c-5.5-2.2-10.6-4.9-15.6-7.8
			c-1.6-0.8-2.6,0.5-1.6,1.4C81,193.3,84.7,195.1,87.7,196.6z"/>
		<path class="st0" d="M128.2,233c-0.7,2.7-0.8,5.2-0.2,7.2c0.5,1.7,3,1.7,3.6-0.2c0.4-2.2,0.3-4.5,0.1-6.9
			C131.1,231.2,128.6,231.2,128.2,233z"/>
		<path class="st0" d="M134.9,234.5v5.8c0,1.9,4,2.1,3.9-0.5l0.1-5.5C138.8,231.2,134.8,230.9,134.9,234.5z"/>
		<path class="st0" d="M114.3,241.6c-1.5,0.3-1.3,2.5,0.2,2.9c1,0.2,1.9,0.2,2.4-0.4C117.6,242,115.9,241.1,114.3,241.6z"/>
		<path class="st0" d="M150.9,244.5c-1.4-0.3-2,0.4-2.5,1.3c-0.5,1.5,0.9,2.5,2.5,1.8C152.5,246.8,152.6,245,150.9,244.5z"/>
		<path class="st0" d="M125.1,236.8c-3.3,0.2-6,1.2-8.3,3.1c-0.3,0.4-0.5,0.7-0.1,1l1.6,1.2c0.9,0.3,1.6,0.1,2.2-0.6
			c1.3-1,2.9-1.3,4.7-1.5C127,239.4,126.6,236.6,125.1,236.8z"/>
		<path class="st0" d="M140.1,240.3c0,0.6,0.3,0.9,0.7,1c1.8,0.5,3.5,1.5,5.2,3.1c0.4,0.4,0.6,0.7,1.2,0.4l1.7-1
			c0.6-0.3,0.5-0.7,0.1-1.1c-2.7-2.5-5.5-3.9-8.3-4.4C140,238,139.9,238.9,140.1,240.3z"/>
		<path class="st0" d="M143,253c-1.9-1.7-4.7-2.3-7.1-4c-1.9-0.7-3.9,2.1-2,3.3c2,1,4,2.1,6.2,3.5c0.9,0.7,1.6,0.6,2.3,0l1-1.2
			C144,253.9,143.6,253.4,143,253z"/>
		<path class="st0" d="M129.2,242.6l-1.7-1.1c-0.5-0.5-1.1-0.3-1.8,0.2c-4.3,2.9-10,4.6-10.4,9.3c-0.1,0.9,0.2,1.4,0.9,1.3
			c1.7-0.3,3.2-0.8,4-2c2.1-3.3,6.1-4,9.1-6.3C130,243.4,129.7,243,129.2,242.6z"/>
		<path class="st0" d="M137.2,245.5c1.6-2.4,0.9-2.4-1.9-2.3c-0.8-0.1-1.6,0.2-2.3,1c-2.8,2.6-6.5,3.8-9.2,6.3
			c-0.9,0.9-1.3,1.7-0.5,2.7l1.4,1.3c0.7,0.4,1.4,0.4,1.8-0.6C128.7,250.2,133.5,249.8,137.2,245.5z"/>
		<path class="st0" d="M140.6,244.3c-0.6-0.4-1.2-0.6-1.8,0.2c-1,1.2-1.8,2.3-0.2,3.2c1.7,1,3.3,1.6,5,2.5c1.1,0.6,1.8,1.2,2.6,2.1
			c0.7,0.7,1.4,1.3,2.2,1.5c1,0.2,1.9,0.1,2.7-0.1c0.6-0.2,0.7-0.6,0.4-1.1C148.2,247.3,143.4,246.6,140.6,244.3z"/>
		<path class="st0" d="M123.2,235.7c3.7,0.5,4.9-2.3,2.7-3.2c-2.8-0.6-5.8-0.3-9,0.9c-1.6,0.6-2.8,0.2-3.7-0.8
			c-2.5-2.5-4.5-3.7-5.1-1.9c-0.8,1.1-1.6,1.5-2.5,0.1l-2.4-4.3c-0.5-1.6-2.1-2.1-4.5-1.9c-1.4,0.1-1.9,0.8-1.6,2l0.9,2
			c0.8,1.5,0,1.9-1.1,0.6c-2.8-3.6-5.1-5.2-7.7-5.2c-1.1,0-1.5,0.5-1.2,1.7l0.6,2c0.4,1.2-0.2,0.9-0.8,0.5c-2.6-2.2-5.2-3.7-7.6-2.3
			c-0.7,0.4-1.2,0.8-0.4,1.8c0.6,0.6,0.5,1.1-0.4,1.3l-5,1.5c-1.6,0.9-2.5,1.8-0.9,3.2c1.4,1.1,5.5,1.2,10.7,0.8
			c0.9,0.1,1.4,0.4,0.8,1.2c-0.5,0.7-1.2,1.4-2.1,1.9c-0.6,0.3-0.6,0.8,0,1.4c1.2,1.2,2.6,1.6,4.4,1l4.9-2c0.9-0.3,1.2,0,0.8,0.8
			l-2.1,2.4c-0.7,1-0.7,1.9,0.9,2.6c3.2,0.6,6.2-0.3,8.9-2.9c1.4-1.2,2.4-0.8,2.1,0.2l-1.6,2.5c-0.6,0.9-0.1,1.7,1.3,1.9
			c4.9-0.1,7.6-6.2,9.5-6.3c0.9-0.5,2,0.2,3.5-0.9C118.6,236.6,121.5,235.2,123.2,235.7z M111.1,237.1c-1.3,0.2-2.2,0.6-2.3,1.5
			c-1,3-3.6,3-2.5,1.1c1.2-1.9,0-2.8-2.8-3.1c-1.9-0.2-3.8,1.3-5.8,3.3c-1.2,0.9-1.1,0.3-0.9-0.6l0.9-1.9c0.6-0.8,0-2-0.9-2
			c-2.2-0.8-5,0.2-8,1.8c-1.1,0.3-1.2-0.3-0.4-0.9l1.7-1.6c0.5-0.9,0.1-1.1-0.5-1.3c-2.7-1-6.3-1.3-10.3-1.3
			c-1.9-0.1-1.8-0.8-0.6-0.8l4.4-0.1c0.8,0,1.2-0.2,0.9-1.1l-0.4-1c-0.3-0.7,0-0.8,0.9-0.3c2.5,2.2,5.2,3.6,8.3,3.8
			c0.9-0.1,1-0.6,0.4-1.3l-1.1-1.7c-0.7-0.9,0-1.5,0.8-0.3c2.3,3.4,5,5.5,8.4,5.4c1.1-0.1,1.4-0.6,0.9-1.5l-1.1-2.2
			c-0.5-1.1,0-1.7,0.7-0.6l2.2,3.7c0.8,1.4,2.2,2.2,4.5,2c0.9-0.1,1.7-0.5,2.3-1C111.7,234,112.6,236.6,111.1,237.1z"/>
		<path class="st0" d="M76.8,225.5c1.6,1.3,2.7-0.6,1.4-1.7c-4.4-3.3-6.3-7.4-6.9-12c-0.5-1.6-1.3-1.5-1.7-0.4c-0.6,1.6-2,1.4-1.9,0
			c0.2-5.8-0.3-8.6-2.1-10.4c-1.6-1.3-2.7-1.2-3.1,0.4l-0.6,2.9c-0.3,1.8-1.7,1-1.5,0.1c0.2-5,0-9.3-1.8-10.5
			c-1.1-0.8-1.8-0.7-2.1,0.3c-0.5,2.7-0.8,2.9-2.4,0.9c-2.2-3.1-3.3-3.4-3.4-0.7c0.1,4.1,0.6,4.8-3.3,4.3c-1.8-0.1-2.6,1.1-1.3,2.3
			l4.6,2.9c0.8,0.6,1.4,1.1-0.1,1.1l-4.4-0.8c-1.3,0-1.7,0.5-1.2,1.5c1.2,2.7,4.8,4.8,10.9,6.2c1,0.3,1,1.2,0.1,1.1l-5.9,0.3
			c-1.2,0-1.2,0.7-0.9,1.4c1.7,2.9,4.6,4.9,10.9,4.3c0.8-0.1,1.7-0.3,1.7,1c-0.3,1.2,0,1.9,0.9,2C67.4,221,72.3,221.5,76.8,225.5z
			 M64.8,217.3c-1.4-2.3-6.8,0.3-9.4-0.8c-1.5-0.6-1.5-0.9-0.3-1c1.3-0.1,2.9-0.4,5.3-0.9c0.8-0.2,0.9-0.9,0.3-2
			c-1.1-1.9-2.3-2.8-3.8-2.7l-4.7-1c-1.1-0.2-1.8-1.3,0-1l4.3,0.3c0.6,0,0.8-0.3,0.4-1c-1.3-3.4-2.8-5.3-4.4-5.7
			c-1.2-0.3-1-0.6-0.1-0.9c0.5-0.3,0.7-0.8,0.6-1.5c-0.1-1.1,0.5-1,0.8-0.1c0.7,1.6,1.3,3.2,2.8,4.1c0.6,0.2,0.9,0.8,1,1.8
			c0.8,3.2,2.2,5.1,4,6.2c1,0.5,1.6,0.2,1.6-0.9l0.4-2.2c0.2-1.5,0.9-1.1,0.7,0.1c-0.2,4.3,0.4,7.3,2.2,8.4c1.6,1,2.2-0.7,3.4,2
			c0.3,0.6,0.6,1-0.5,0.9l-3.6-0.1C64.8,219.2,65,217.9,64.8,217.3z"/>
		<path class="st0" d="M79.4,214c0.2-2.2-2.4-2.6-4-1.3c-0.8,0.7-0.6,2.4,1.1,2.6C77.7,215.3,78.8,215,79.4,214z"/>
		<path class="st0" d="M63.8,224.9c-1.1,0.7-1.3,3,0.6,3.8c1.6,0.2,2.7-0.1,2.7-1.6C66.6,224.7,65.5,224.2,63.8,224.9z"/>
		<path class="st0" d="M81,218.5c1.3-1.1,0.2-3.3-2.1-2.5c-1.1,0.4-2.1,0.5-3.1,0.4c-1.9,0-2,2.5-0.3,3.2c0.9,0.3,1.8,1,2.5,2.3
			c2,3.3,4,3,2.2-1.1C80,219.8,80.3,219,81,218.5z"/>
		<path class="st0" d="M75.5,226.8c0.6,0,0.7-0.5,0-1.2c-0.7-0.6-1.6-0.9-2.8-0.9c-1.4-0.1-2.3-0.6-2.9-1.3c-2-1.3-3.7,0.3-2.4,2.5
			c0.3,0.6,0.5,1.4,0.6,2.8c0.4,1.7,2.6,1.5,3.3-0.1C72,226.9,73.6,226.6,75.5,226.8z"/>
		<path class="st0" d="M40.4,191.7c2,2.2,4.2,4.2,7,5.7c1.8,0.7,2.4-0.7,1.1-2c-6.3-4-7.4-9.4-4.1-15.8c1.3-3.3-0.3-5.7-2.3-3.3
			c-1.1,1-2,0.3-1.6-1.2c1.8-5.7,1.7-9.5-1.4-10.3c-2.2-0.7-3.1,1-3.4,3.8c-0.6,1.8-2.2,2.1-1.8,0.3c1.1-3.3,1.1-5.5-0.2-6.4
			c-1.4-0.9-2.2-0.2-2.6,1.7c-0.6,2-1.9,0.8-2.3-0.6c-0.8-1.3-1.6-1.4-2.4-0.9c-1,1-1.9,1-2.9,0.7c-1.8-0.1-2,0.8-1.4,2
			c1.5,1.6,1.1,2.7-0.8,1.7c-2.1-0.7-2.8,0.9-1.9,2.4c1.4,1.5,2.9,2.9,4.8,3.5c1.2,0.6,1.5,1.1,0,0.9c-2.6-0.4-2.6,0.5-2.3,1.6
			c0.4,2.8,3.9,4.5,8.8,5.7c1.3,0.4,1.4,1.4,0.3,1.2l-1.9-0.1c-1.1,0-1.3,0.4-0.8,1.3c1.3,1.8,3.6,3.2,7.6,4.1
			C37.7,188.3,39.3,189.6,40.4,191.7z M34.7,184.5c4.7-0.6,0.5-5.3-5.3-6.1c-1.3-0.2-0.8-1.2,0-0.8c7.7,2.9,4-5-2.7-6.1
			c-1-0.2-0.9-1,0.1-0.7c4.5,1.4,2.1-0.8,0.2-2.7c-0.8-0.9,0.2-1.7,0.8-1c1.9,2.1,2.3,2.4,3.5,0.4c0.3-0.7,0.8-0.5,0.6,0.4
			c-0.5,1.7-0.8,3.3,0.4,5c3.9,5.9,3.6,2.1,5.7-2.5c0.4-0.9,0.9-0.8,0.6,0.3c-0.7,1.9-1.3,3.9-1.9,5.7c-1,3.2,0.2,5.7,3,4.9
			c0.8-0.3,1,0.2,0.5,0.8c-1.1,1.3-1.7,2.5-0.7,3.8c0.5,0.6,0,1.1-0.6,0.4c-0.8-1-2.5-1.1-4.2-1.2C34.1,185,33.9,184.3,34.7,184.5z"
			/>
		<path class="st0" d="M44.5,187.2c0.9,0.9,1.3,3,1.6,5.6c0.2,1.3,2,1.4,2.1-1c-0.1-2.4,0.9-2.8,2.5-3.2c1.3-0.6,0.6-2.7-0.8-2.8
			c-1.4-0.2-2.6-0.6-3.8-1.2C44.1,184,43.5,185.6,44.5,187.2z"/>
		<path class="st0" d="M48.2,184.1c1.4,0.2,2.4,0,2.7-1c0.1-2.2-1.2-2.7-3.2-2.4C46,181.3,45.9,183.5,48.2,184.1z"/>
		<path class="st0" d="M32.6,192.3c-0.8,1-0.4,3.6,1.7,3.6c1.5-0.2,2.1-1.1,1.7-2.8C35.4,191.2,33.5,191,32.6,192.3z"/>
		<path class="st0" d="M42.3,194.8c-1.2-0.6-1.9-1.5-2.4-2.5c-0.9-1.6-3.2-1.3-3.3,0.8c0.1,0.8-0.1,2-0.5,3.5
			c-0.5,1.7,2.2,2.6,3.5,0.9c0.5-0.8,1.6-0.8,3.5,0.2C45.4,198.1,45.4,196.5,42.3,194.8z"/>
		<path class="st0" d="M16.5,146.2c0.9,0.4,1.7,0.9,1.7,2.7c0,1,0.6,2,2.6,2.9c1.3,0.5,2.5,1.6,3.5,6.4c0.4,1.4,1,2.5,2.1,3.1
			c1.1,0.8,2.2-0.5,0.9-2.2c-1.8-4.6-2.1-7.7-0.6-8.9c0.6-1,0.5-1.8-0.1-2.4c-0.6-0.7-0.3-1.1,0.4-1.3c1-0.3,1.5-1,2.5-2.3
			c3.3-2.9,1.4-5.9-2.4-3.5c-1.4,0.8-2-0.8-0.7-1.2c3.7-1.5,6.3-3.3,5.8-6.1c-0.2-1.4-0.8-1.7-1.8-1.1c-2.7,1.3-3.4,1.1-2.3-0.6
			c1.7-1.5,2.5-3.4,1.9-5.6c-0.4-1.2-1-1.7-2.4-0.9c-1.4,1.3-2.8,1.9-4.1,0.8c-2.4-1.1-3.6,1.1-3.9,5.9c0,2-0.9,1.5-2.4-0.6
			c-0.5-0.8-1.3-0.5-2.5,0.9c-1,1-1.3,2.3-0.4,4L16,139c0.6,1.5,0,1.7-0.7,1.5c-3-1.7-4-1.1-3.1,2C12.7,144.1,14.1,145.4,16.5,146.2
			z M19.4,137.7c0.9,0.8,1.5,0.5,1.7-0.9l0.5-3.5c-0.2-2.3,1.1-2.9,2.9-3c1.3,0,1,0.6,0.4,1.2c-1.2,1.1-2.1,2.4-2.4,4.3
			c-0.2,1.2,0.3,1.4,1.3,1.1c2,0,1.8,0.5-0.9,1.9c-1.1,0.6-1.6,0.8-1.5,3.1c0.2,1.8,0.6,2.6,2.5,2.2c1.5-0.6,1.1,0.1-1,2.2
			c-1.2,1-1.6,1.8-0.1,2.3c1.9,1.4,0.9,3.5-1.4,1.3l-0.2-1.3c0.9-2.2-1.7-2.2-2.6-3.2c-0.6-0.6-0.4-0.9,0.5-0.9
			c2.4-0.6,0.9-3.6-1.3-7.1C17.1,136,17.6,136.1,19.4,137.7z"/>
		<path class="st0" d="M33.3,147.5c-1.8-0.1-2.5,2-1.1,3.1c1.3,0.8,2.4,0.7,3.3-0.1C36.3,148.6,35.4,147.7,33.3,147.5z"/>
		<path class="st0" d="M16.6,153.7c0.5-2.2-0.4-3.4-2.2-3c-1.4,0.4-2.1,2.6-0.9,3.7C14.7,155.2,15.8,155.1,16.6,153.7z"/>
		<path class="st0" d="M22.8,159.5c1.1,0.9,1.8-0.4,1-1.6l-2-2.7l-0.5-1.6c-0.1-1.5-2.2-2.8-3.4-1c-0.5,1.3-1.1,2.4-1.8,3.5
			c-0.6,1.6,0.8,2.7,2.7,1.9C19.7,156.9,21.2,158,22.8,159.5z"/>
		<path class="st0" d="M28.9,158.3c0.5,1.1,1,1.5,1.8,0c0.6-1.9,1.4-2.9,2.7-2.8c2.6-0.1,2.1-2.7,0.4-3.2c-1.2-0.6-2.3-1.3-3.4-2
			c-1.3-0.7-2.5,1.3-1.8,2.6C29.6,154.1,28.3,156.3,28.9,158.3z"/>
		<path class="st0" d="M191.9,223.4c2.8-6.7-8.8-5.5-4.8,0.1c0.8,0.7,1.3,1.3,0.9,2.2c-0.8,2.8,4.3,2.9,3.3-0.2
			C191,224.6,191.3,223.9,191.9,223.4z"/>
		<path class="st0" d="M217.4,201c1,0.2,1.7,0.5,1.8,1.4c0.6,2.8,5.1,0.4,2.8-1.8c-0.7-0.5-0.8-1.3-0.5-2.1
			C220.8,191.3,211.4,198.1,217.4,201z"/>
		<path class="st0" d="M236.8,168.9c1.6,2.8,5.1-1,2.3-2.5c-0.8-0.3-0.8-1.1-1-1.9c-2.4-6.7-9.7,2-3.4,3.5
			C235.7,167.9,236.5,168,236.8,168.9z"/>
		<path class="st0" d="M196.9,233.8c-1,0.3-1.8,0.2-2.3-0.6c-1.7-2.3-5,1.6-2,2.7c0.9,0.2,1.2,0.9,1.3,1.7
			C197.5,243.8,203.7,234,196.9,233.8z"/>
		<path class="st0" d="M230.2,205.4c-0.7,0.7-1.5,1.1-2.2,0.6c-2.9-0.7-3.4,3.8-0.3,3.3c0.9-0.2,1.5,0.2,1.9,0.9
			C235.7,213.8,235.9,202.7,230.2,205.4z"/>
		<path class="st0" d="M248.4,168.4c-0.6,0.9-1.2,1.4-2.1,1.1c-2.8-0.7-3,4.1,0.4,3.4c0.8-0.4,1.8-0.2,2.4,0.4
			C255.3,175.6,253.6,164,248.4,168.4z"/>
		<path class="st0" d="M159.1,245.1c3.8,1.4,6.9-0.6,12.4-1.9c6.6-1.9,12.4-4.1,15.6-7.3c1.3-1.7,0.7-1.4-0.8-1.5
			c-5.1,0.4-10.1,2.7-15,5.4c-3.5,1.4-7.1,2.5-10.8,1.9c-2.1-0.3-1.9-1.8,2.6-2c3.6,0.5,9-2.7,15.7-5.2c1.7-0.7,3.4-1,5.1-0.9
			c3-0.1,2.7-1.3,1-1.3c-8.9-0.7-17,2.4-26.6,5.7c-1.7,0.9-3.4,0.9-5,0.2c-4.4-2.2-8.4-3.7-12-4.6c-1.9-0.4-2.6,2.7-0.6,3.2
			c3.5,0.3,7,1.8,10.4,3.8C153.7,242.4,156.1,244,159.1,245.1z"/>
		<path class="st0" d="M188.2,243.1c-4.8-0.7-9.7,3.9-17.5,5.1c-1,0-1.2-0.7,0.3-1.1l14.1-4.5c1.2-0.5,0.8-1.6-1.2-1.5
			c-5.5-0.1-17.5,8.1-25.5,4.9c1.3,2.9,4.4,4.9,11.4,4.6c7.3-1.7,13.3-3.7,18.4-6.1C189.6,243.9,189.2,243.3,188.2,243.1z"/>
		<path class="st0" d="M158.4,237.7c3.9-1.7,8.4-3.4,13.6-4.8c2.9-0.9,5.4-0.9,8.1-1.4c1.5-0.2,1.1-2.7-0.3-2.3
			c-2.1,0.4-3.5,1.1-5.8,1.3c-2.8,0.1-4.2,1.8-6.3,2l-2.6,0.4c-2,0.3-1-1,1.6-1.6l5.4-1.1c2.3-1.5,4.7-2.2,7.2-1.9
			c1.3,0.2,1-0.3,0-1.1c-2.5-1.6-5.5-0.9-8.6,0.6c-2.4,1-3.9,0.4-5.4,1.3c-5,2.8-7.9,6.8-12.6,7.1
			C153.4,237.8,156.9,238.6,158.4,237.7z"/>
		<path class="st0" d="M191.9,231.3c1.5-2.2,4.9-3.4,9.5-4.1c4.5-1.6,9.1-4.8,13.7-8.8c3.9-2.8,5.9-5.7,5.9-8.7
			c0.1-2.3-0.2-2.7-0.9-1.3c-1.4,2.8-3.8,5.4-7.7,7.8c-3.4,1.7-6.5,4.3-9.6,7.7c-2.2,1.5-2.8,1.4-1.9-0.1c1.6-2.7,6.1-6,11.5-9.4
			c4-2.5,6.7-5.1,7.4-7.7c0.2-1,0.2-1.7-1.3-0.3c-7.1,5.3-13.4,8.9-16.7,13.1c-5.5,6.7-12.1,8.2-12.8,10.2
			C187.3,231.3,190.3,233.5,191.9,231.3z"/>
		<path class="st0" d="M224,216c-3.4,4.6-7.8,8.6-13.4,11.8c-1.2,0.5-1.4-0.6,0-1.3c4.5-2.9,9.1-5.5,12.1-10.8
			c0.3-1.4-1.2-1.5-2.3-0.5c-4.8,5.8-10.5,11-20.6,13.3c-1.4,0.4-1.1,1.6,0,1.5c3.9,0,8.1,0.6,12.1-0.3c3.1-1.6,6.3-4.2,9.4-7.3
			c2.6-2.2,4.1-4.3,3.7-6C225.1,215.6,224.6,215.1,224,216z"/>
		<path class="st0" d="M203.3,211.9c4.3-4.3,7.8-5.9,7.8-8.2c-0.1-1.4-0.4-1.3-0.9-0.8c-2.8,3-6.2,5.7-9.7,8.3
			c-1.9,1.2-3.4,3-4.2,5.8c-0.4,2.5-0.8,4.5-1.2,5.6c-0.3,0.8-0.2,1.4,0.6,1.4c1.8-0.8,3.1-2,4.1-3.6c1.9-2.7,4-5.1,6.3-6.6
			c2.1-1.4,3.5-2.9,3.8-4.4c0.4-1.6,0.1-2-1.3-1c-2.6,1.8-5,4.6-7.3,7.4c-1.4,1.3-2.5,1.3-1.6-0.3L203.3,211.9z"/>
		<path class="st0" d="M235.3,195c4.3-7,7.2-13.8,7.6-20.2c0-1.6-0.2-2.8-1.7-0.6c-3.7,6.4-5.7,16.2-10.2,21.6
			c-1.1,0.8-1.4,0.5-0.9-0.8c2.3-5.6,6.3-11.6,8.9-18.6c0.5-1.6,0.1-1.9-1.2-0.7c-4.5,4.8-7.9,13.4-10.1,18.4
			c-1,4.7-2.6,8.7-5.3,11.2c-0.8,1,0.1,3.3,2.1,1.6c2.3-2,3.5-3.9,4.9-6.3C230.5,198.2,233.4,197.4,235.3,195z"/>
		<path class="st0" d="M226.6,194c0.4-2.6,1.2-4.5,2.3-5.9c3.2-5.1,5.2-9.1,6.1-11.9c0.2-1.3-0.7-2.3-1.9-1
			c-2.4,2.5-3.9,9.3-7.1,14.1c-0.9,1.2-1.6,0.5-0.2-2.3c0.9-2,2.4-2.5,3.6-6.6c0.5-2.4,1.1-3.4,2.6-5.1c0.5-1-0.2-1.7-1.6-0.5
			c-3.6,3.8-11.4,13.2-5.9,22.3C225.7,198.9,226,196.8,226.6,194z"/>
		<path class="st0" d="M247.9,181.4c-4.2,4-6.1,13.7-8.7,15.2c-1.2,0.6-1.4,0.2-0.4-1c3.6-3.9,4.1-9.6,7.7-13.4
			c1.4-1.7,1.5-2.2-0.7-1.3c-3.3,1.6-4.9,4.4-6,9.1c-1.8,3.9-4.6,7.2-8.1,9.9c-1.1,1.7-0.2,1.9,2,1.1c1.5-0.5,2.9-0.7,4.3-1.2
			c1.1-0.4,2.2-1,3.3-1.8c3.9-4.6,5.1-10.4,7.6-15.5C249.9,180.5,249.2,180.5,247.9,181.4z"/>
		<path class="st0" d="M240.6,145.7c-1-0.6-1.3-0.4-1.1,0.6c0.1,0.5,0,1.2-0.3,2.2c-0.7,1.9-0.6,4.5,0.3,7.8c0.4,0.9-0.5,1.2-1,0.1
			c-2.6-10,2.4-10.6-0.8-14.7c-0.8-0.8-0.4-0.8-1.1,0.8c-2.7,10-1.2,15.8,2.9,19.4c0.7,0.7,1.3,0.9,1.7-0.1s0.5-2.3-0.1-4.2
			c-0.5-2.4-0.4-4.3-0.1-5.8C241.8,148.2,241.4,146.6,240.6,145.7z"/>
		<path class="st0" d="M247.8,141.8c-0.2-1.6-0.9-1.5-1.8-0.7c-2.6,2.5-3.5,8.7-3.6,16.5c0.1,4.5-1.9,8.2-2.3,13
			c-0.4,2.2,2.5,2.4,2.6,0.3c-0.2-2.3,0.2-3.3,0.7-4.1c1.2-3.3,3.6-5.1,5.6-9c1.4-3.5,1.9-7.4,2.1-11c0-3.4-0.6-4.3-1.3-5
			c-0.7-0.8-1.2-0.8-1.1,0.4c0.5,2.1,0.1,4.2-1,6.3c-1.2,2.7-1.7,5.8-1.4,9.4c-0.2,1.9-1.8,1.4-1.6,0.2c-0.2-3.5,0.4-6.6,1.4-9.3
			C247.5,146.3,248.1,144,247.8,141.8z"/>
		<path class="st0" d="M254.6,145.2c0.5,2.6,0.7,5.3-0.3,8.1c-0.9,1.6-1.5,3.4-1.5,5.4c0,1.2-1.2,1.2-0.9-0.1l0.9-4.1l1.3-6.1
			c0.5-1.8-0.1-2.7-0.9-3.3c-0.7-0.6-1-0.2-1,1c-0.3,6.1-0.9,10.8-2.1,12.2l-4.9,7.2c-0.7,1.6-0.6,2.5,2.4,0.7l6.8-5.8
			c1.2-1.1,1.8-2.9,1.9-5.4c-0.1-1.4,0.1-2.6,0.6-3.8c0.7-1.8,0.3-3.8-1.3-6C254.8,144.1,254.5,144.1,254.6,145.2z"/>
		<path class="st0" d="M12.2,119.1c0.1-0.5,0.2-0.8,0.5-1c0.2-0.2,0.4-0.3,0.8-0.3c0.2,0,0.7,0.1,1.5,0.2l11.5,1.8
			c0.9,0.1,1.4,0.3,1.6,0.4c0.3,0.1,0.5,0.3,0.6,0.5c0.1,0.3,0.2,0.6,0.1,1l-0.1,0.5l0.5,0.1l1.8-12.1l-5.5-1.5l-0.1,0.4
			c1.5,0.6,2.6,1.3,3.2,2.2c0.6,0.9,0.9,2,0.7,3.3l-0.1,0.8c-0.1,0.4-0.2,0.7-0.3,0.8c-0.2,0.2-0.4,0.3-0.6,0.3s-0.8,0-1.8-0.2
			l-4.9-0.8c0.1-0.7,0.3-1.2,0.6-1.5c0.3-0.3,0.8-0.6,1.4-0.7c0.7-0.2,1.5-0.2,2.5-0.1l0.1-0.4l-9.2-1.4l-0.1,0.4
			c1.3,0.3,2.3,0.7,3,1.3c0.6,0.5,0.9,1.2,0.8,2.1v0.3l-7.1-1.1l0.2-1.4c0.2-1.1,0.3-1.8,0.6-2.1c0.4-0.6,0.8-1.1,1.4-1.3
			c0.6-0.3,1.6-0.4,2.9-0.4l0.1-0.4l-5.2-0.8l-1.8,11.7l0.5,0.1L12.2,119.1z"/>
		<path class="st0" d="M18.7,102.6c0.8,0.2,1.6,0.2,2.3,0.1c0.7-0.1,1.4-0.4,2.1-0.8s1.5-1.1,2.6-2.2c0.8-0.8,1.4-1.3,1.8-1.5
			c0.4-0.3,0.9-0.4,1.3-0.5s0.8-0.1,1.2,0c0.7,0.2,1.2,0.5,1.6,1.1s0.5,1.2,0.3,2c-0.2,1-0.9,1.8-2.1,2.4s-2.7,0.8-4.6,0.7l-0.1,0.4
			l6.5,1.6l0.1-0.4c-0.3-0.2-0.5-0.4-0.7-0.7c-0.1-0.2-0.2-0.4-0.1-0.6s0.2-0.5,0.4-0.7c0.4-0.5,0.8-0.9,1-1.3
			c0.2-0.4,0.4-0.8,0.5-1.2c0.3-1.4,0.1-2.6-0.7-3.8c-0.8-1.2-1.9-1.9-3.4-2.3c-1.1-0.3-2.2-0.3-3.2,0.1c-1,0.3-2.2,1.2-3.6,2.5
			c-1,1-1.7,1.6-2,1.8c-0.5,0.3-1,0.6-1.4,0.6c-0.3,0.1-0.7,0.1-1.1,0c-0.6-0.2-1.1-0.5-1.4-1c-0.4-0.5-0.5-1.1-0.3-1.8
			c0.2-0.9,0.9-1.6,1.9-2.2c1.1-0.6,2.3-0.7,3.8-0.6l0.1-0.4l-5.8-1.3l0.1,0.4c0.5,0.2,0.8,0.4,0.9,0.5s0.1,0.3,0.1,0.5
			s-0.3,0.5-0.6,0.9c-0.4,0.4-0.7,0.7-0.8,1c-0.2,0.4-0.4,0.8-0.5,1.2c-0.3,1.2-0.1,2.4,0.7,3.4C16.3,101.6,17.4,102.3,18.7,102.6z"
			/>
		<path class="st0" d="M22.8,89.6c-1.1-0.7-1.9-1.4-2.3-2.3c-0.3-0.6-0.3-1.3,0.1-2.2l0.4-0.9l12.6,5.5c0.8,0.4,1.3,0.6,1.5,0.8
			c0.2,0.2,0.4,0.4,0.4,0.6c0.1,0.3,0,0.6-0.1,1l-0.2,0.4l0.4,0.2l2.9-6.8L38,85.6L37.8,86c-0.2,0.4-0.4,0.6-0.6,0.8
			c-0.3,0.1-0.5,0.2-0.7,0.2s-0.8-0.2-1.6-0.6L22.3,81l0.4-1c0.3-0.6,0.5-1,0.8-1.2c0.4-0.3,0.9-0.5,1.5-0.6c0.5-0.1,1.4,0,2.5,0.3
			l0.1-0.3l-4.4-1.9L18.3,88l4.4,1.9L22.8,89.6z"/>
		<path class="st0" d="M38.6,82.2c0.2,0.5,0.2,1,0.1,1.5L39,84l2.4-4L41,79.7c-0.4,0.6-0.8,0.9-1,1c-0.4,0.2-0.8,0.1-1.2-0.2
			c-0.3-0.2-0.7-0.5-1.1-1l-1.2-1.4l2.5-4.3l2.3,0.5c0.6,0.1,0.9,0.2,1,0.2c0.2,0,0.3,0.1,0.4,0.2c0.2,0.1,0.4,0.3,0.4,0.5
			c0.1,0.3-0.1,0.7-0.3,1.1l-0.1,0.2l0.4,0.3l3.4-5.9l-0.4-0.3c-0.3,0.3-0.6,0.6-0.9,0.6c-0.5,0.1-1.4,0-2.8-0.3l-15-3.2L27.3,68
			l9.6,11.8C37.8,80.9,38.4,81.7,38.6,82.2z M31.8,72.3l6.3,1.4l-2.2,3.7L31.8,72.3z"/>
		<path class="st0" d="M34.1,59c0.2-0.3,0.5-0.5,0.8-0.6s0.5-0.1,0.8,0c0.2,0.1,0.7,0.4,1.4,0.9l9.3,7.1c0.7,0.6,1.2,0.9,1.3,1.1
			c0.2,0.3,0.2,0.5,0.2,0.8s-0.1,0.6-0.4,0.9l-0.3,0.4l0.4,0.3l3.7-5.1c0.5-0.7,0.9-1.3,1.1-1.7c0.4-0.9,0.6-1.8,0.7-2.5
			c0.1-0.8,0-1.6-0.3-2.4c-0.3-0.8-0.7-1.7-1.4-2.6c-0.7-0.9-1.5-1.7-2.5-2.5c-1.4-1.1-2.9-1.8-4.5-2.2c-1.5-0.4-2.9-0.2-4.2,0.4
			c-1.1,0.5-2.1,1.4-3.1,2.7l-3.7,5.1l0.4,0.3L34.1,59z M39.1,53.6c0.7-0.3,1.6-0.4,2.8-0.1c1.4,0.4,3,1.2,4.9,2.6
			c2.3,1.7,3.7,3.3,4.3,4.8c0.4,1.1,0.3,2.1-0.4,3c-0.2,0.3-0.4,0.5-0.6,0.5c-0.1,0.1-0.3,0.1-0.5,0s-0.5-0.3-1.1-0.8l-11.1-8.4
			C38,54.4,38.6,53.8,39.1,53.6z"/>
		<path class="st0" d="M51.6,51.9c1.7,1.6,3.6,2.6,5.6,2.9c2.5,0.5,4.6-0.3,6.3-2.2s2.1-4.1,1.4-6.7c-0.6-2-1.7-3.7-3.4-5.2
			c-1.9-1.8-4-2.8-6.3-2.9s-4,0.6-5.5,2.4c-1.5,1.5-2,3.3-1.6,5.6C48.5,48.1,49.6,50.1,51.6,51.9z M50.5,40.7
			c0.5-0.5,1.1-0.8,1.8-0.9c0.7-0.1,1.6,0.2,2.7,0.7c1.1,0.5,2.5,1.6,4.2,3.2c1.5,1.4,2.5,2.6,3.2,3.7c0.7,1.1,1,2.1,1,2.9
			c0,0.7-0.2,1.2-0.7,1.8c-0.7,0.8-1.6,1.1-2.8,0.8c-1.6-0.4-3.6-1.6-5.8-3.7c-1.9-1.7-3.1-3.3-3.8-4.6
			C49.6,42.9,49.6,41.6,50.5,40.7z"/>
		<path class="st0" d="M64.2,38.2c0.7,0.4,1.4,0.6,2.1,0.7c0.8,0.1,1.9,0.1,3.4,0c1.1-0.1,1.8-0.1,2.3,0s0.9,0.2,1.3,0.4
			s0.7,0.5,0.9,0.8c0.4,0.6,0.6,1.2,0.6,1.9s-0.4,1.3-1,1.8c-0.8,0.6-1.8,0.8-3.1,0.5c-1.3-0.3-2.6-1.1-4-2.4l-0.3,0.2l4,5.5
			l0.3-0.2c-0.1-0.4-0.2-0.7-0.1-0.9c0.1-0.3,0.2-0.4,0.3-0.6c0.2-0.1,0.4-0.2,0.8-0.3c0.7-0.1,1.2-0.2,1.6-0.4s0.7-0.4,1.1-0.6
			c1.1-0.9,1.7-2,1.8-3.4c0.1-1.4-0.3-2.7-1.2-3.9c-0.7-0.9-1.5-1.6-2.5-2s-2.4-0.5-4.4-0.3c-1.4,0.1-2.3,0.2-2.7,0.1
			c-0.6-0.1-1.1-0.2-1.5-0.4c-0.3-0.2-0.6-0.4-0.8-0.7c-0.4-0.5-0.5-1.1-0.5-1.7c0-0.6,0.3-1.2,0.9-1.6c0.7-0.6,1.7-0.7,2.8-0.4
			c1.2,0.3,2.3,0.9,3.3,2l0.3-0.3l-3.6-4.7l-0.2,0.2c0.2,0.5,0.4,0.8,0.4,1s-0.1,0.3-0.2,0.4s-0.5,0.2-1,0.2c-0.5,0.1-1,0.1-1.3,0.2
			c-0.4,0.1-0.8,0.4-1.2,0.6c-1,0.8-1.5,1.8-1.6,3.1s0.3,2.5,1.2,3.7C62.9,37.3,63.5,37.8,64.2,38.2z"/>
		<path class="st0" d="M81.9,20.6c0.3,0.1,0.5,0.2,0.7,0.4c0.2,0.2,0.5,0.8,0.8,1.7l3.3,8.2c0.6,1.4,1.2,2.4,1.9,3.1
			c0.7,0.7,1.5,1.1,2.6,1.3c0.8,0.1,1.7,0,2.8-0.5c1.3-0.6,2.2-1.4,2.7-2.4c0.5-1.1,0.6-2.1,0.5-3c-0.2-1-0.6-2.4-1.4-4.4l-2.6-6.3
			c-0.3-0.7-0.4-1.2-0.5-1.5c0-0.4,0-0.8,0.2-1.1c0.2-0.3,0.4-0.5,0.8-0.7l0.3-0.1l-0.2-0.5l-4.4,1.9l0.2,0.5c0.5-0.2,1-0.3,1.3-0.2
			c0.2,0,0.5,0.2,0.7,0.5c0.3,0.3,0.5,0.8,0.8,1.5l2.8,6.8c0.7,1.8,1.1,3.1,1.1,3.9s-0.1,1.5-0.4,2.1c-0.3,0.6-0.8,1.1-1.5,1.4
			c-0.6,0.3-1.2,0.3-1.7,0.2c-0.5-0.2-1-0.4-1.3-0.8c-0.4-0.4-0.9-1.4-1.5-2.9l-3.3-8.2c-0.4-1-0.6-1.6-0.6-1.8c0-0.3,0-0.5,0.2-0.7
			c0.1-0.2,0.5-0.4,0.9-0.6l0.3-0.1l-0.2-0.5l-6.6,2.8l0.2,0.5C81.3,20.6,81.7,20.5,81.9,20.6z"/>
		<path class="st0" d="M98.5,14.6c0.3,0.1,0.6,0.4,1,0.8l0.4,0.4l2.7,12.5c0.2,0.9,0.2,1.6,0,2.1s-0.7,0.8-1.4,0.9l0.1,0.5l4.8-1.1
			l-0.1-0.5l-0.3,0.1c-0.5,0.1-0.9,0-1.3-0.3s-0.8-0.9-1-1.9L101,16.9l12.3,12.6l0.3-0.1l-3.2-14.7c-0.2-0.8-0.3-1.4-0.2-1.8
			c0-0.4,0.1-0.7,0.3-0.8c0.2-0.2,0.5-0.4,1.1-0.6l-0.1-0.5l-4.5,1l0.1,0.5c0.8-0.2,1.3-0.1,1.8,0.4c0.3,0.3,0.6,1,0.8,2.1l1.6,7.6
			l-9.1-9.4l-4.8,1.1l0.1,0.5C97.9,14.5,98.2,14.5,98.5,14.6z"/>
		<path class="st0" d="M113.5,11c0.4-0.1,0.7,0,1,0.1s0.4,0.3,0.5,0.5s0.2,0.8,0.3,1.7l1.6,11.8c0.1,0.9,0.2,1.5,0.1,1.7
			c-0.1,0.3-0.2,0.5-0.3,0.7c-0.2,0.2-0.5,0.4-0.9,0.4l-0.5,0.1l0.1,0.5l7.2-1l-0.1-0.5l-0.5,0.1c-0.4,0.1-0.7,0-1-0.1
			s-0.4-0.3-0.5-0.5s-0.2-0.8-0.4-1.7L118.5,13c-0.1-0.9-0.2-1.5-0.1-1.7c0.1-0.3,0.2-0.5,0.3-0.7c0.2-0.2,0.5-0.4,0.9-0.4l0.5-0.1
			L120,9.6l-7.2,1l0.1,0.5L113.5,11z"/>
		<path class="st0" d="M123.9,9.6c0.4,0,0.7,0.1,0.9,0.3c0.2,0.2,0.4,0.4,0.5,0.6c0.1,0.2,0.1,0.8,0.1,1.7l0.1,11.9
			c0,0.9,0,1.5-0.1,1.7c-0.1,0.3-0.3,0.5-0.5,0.7s-0.5,0.3-0.9,0.3h-0.5v0.5l6.2-0.1c0.9,0,1.6-0.1,2-0.2c0.9-0.2,1.7-0.6,2.4-1
			c0.6-0.4,1.2-1,1.7-1.7s0.9-1.6,1.2-2.7s0.5-2.2,0.4-3.5c0-1.8-0.4-3.5-1-4.9c-0.7-1.4-1.6-2.5-2.8-3.2c-1-0.6-2.4-0.9-4-0.8
			l-6.2,0.1v0.5L123.9,9.6z M131.2,10.4c0.7,0.4,1.3,1.1,1.7,2.2c0.6,1.4,0.9,3.2,0.9,5.5c0,2.9-0.4,5-1.2,6.4
			c-0.6,1-1.5,1.5-2.6,1.5c-0.3,0-0.6-0.1-0.8-0.2c-0.1-0.1-0.2-0.2-0.3-0.4c-0.1-0.2-0.1-0.6-0.1-1.4l-0.1-14.1
			C129.9,10.1,130.7,10.2,131.2,10.4z"/>
		<path class="st0" d="M147.2,29.4c2.5,0.2,4.5-0.8,6-3c1.2-1.7,1.8-3.6,2-5.9c0.2-2.7-0.3-4.9-1.6-6.8s-3-2.8-5.2-2.9
			c-2-0.3-3.8,0.5-5.3,2.1c-1.5,1.7-2.4,3.9-2.6,6.5c-0.2,2.4,0.2,4.5,1.2,6.3C142.9,28,144.7,29.2,147.2,29.4z M144.2,19.7
			c0.2-2.6,0.6-4.6,1.2-5.9c0.8-1.6,1.8-2.4,3.1-2.3c0.7,0,1.3,0.3,1.8,0.9c0.5,0.5,0.9,1.4,1.1,2.6c0.3,1.2,0.3,3,0.1,5.4
			c-0.1,2-0.4,3.6-0.8,4.8c-0.4,1.2-1,2.1-1.6,2.6c-0.5,0.4-1.1,0.6-1.8,0.5c-1-0.1-1.8-0.6-2.3-1.7
			C144.2,25.1,143.9,22.8,144.2,19.7z"/>
		<path class="st0" d="M156.6,30.7c0.2-0.1,0.4-0.2,0.6-0.2c0.2,0,0.5,0.2,0.7,0.4c0.5,0.4,1,0.7,1.3,0.9c0.4,0.2,0.8,0.3,1.2,0.4
			c1.4,0.3,2.6,0,3.7-0.9c1.1-0.9,1.8-2.1,2.1-3.6c0.2-1.2,0.1-2.3-0.2-3.3c-0.4-1-1.3-2.2-2.7-3.5c-1-1-1.6-1.6-1.9-2
			c-0.4-0.5-0.6-0.9-0.7-1.4c-0.1-0.3-0.1-0.7,0-1.1c0.1-0.6,0.4-1.1,0.9-1.5s1.1-0.5,1.8-0.4c0.9,0.2,1.6,0.8,2.2,1.8
			c0.6,1.1,0.8,2.3,0.8,3.9l0.4,0.1l1-5.9l-0.3-0.1c-0.2,0.5-0.3,0.8-0.5,0.9c-0.1,0.1-0.3,0.2-0.5,0.1c-0.2,0-0.5-0.2-0.9-0.6
			c-0.4-0.4-0.7-0.6-1-0.8c-0.4-0.2-0.8-0.4-1.2-0.5c-1.2-0.2-2.3,0.1-3.3,0.9c-1,0.8-1.6,2-1.9,3.4c-0.2,0.8-0.2,1.6,0,2.4
			c0.2,0.7,0.5,1.4,0.9,2.1s1.2,1.5,2.3,2.6c0.8,0.7,1.3,1.3,1.6,1.7c0.3,0.4,0.5,0.8,0.6,1.3c0.1,0.4,0.1,0.9,0,1.3
			c-0.1,0.7-0.5,1.3-1,1.7c-0.6,0.4-1.2,0.6-2,0.4c-1-0.2-1.8-0.9-2.4-2c-0.7-1.2-1-2.7-0.9-4.6l-0.4-0.1l-1.3,6.7l0.4,0.1
			C156.2,31.1,156.4,30.9,156.6,30.7z"/>
		<path class="st0" d="M177.6,38c-0.6-0.3-0.9-0.7-1-1.1c-0.1-0.4-0.1-0.8,0-1.2c0.1-0.2,0.3-0.7,0.7-1.5l6-11.2l-2.9,17l0.2,0.1
			L193,28.3l-6.3,11.8c-0.4,0.8-0.7,1.3-0.9,1.4c-0.2,0.2-0.5,0.3-0.7,0.4c-0.3,0-0.6,0-1-0.2l-0.4-0.2l-0.2,0.4l6.4,3.5l0.2-0.4
			l-0.4-0.2c-0.3-0.2-0.6-0.4-0.7-0.7c-0.1-0.3-0.2-0.5-0.1-0.8c0-0.2,0.3-0.8,0.7-1.6l5.6-10.5c0.4-0.8,0.7-1.3,0.9-1.4
			c0.2-0.2,0.5-0.3,0.7-0.4c0.3,0,0.6,0,1,0.2l0.4,0.2l0.2-0.4l-5-2.8l-8.9,8.6l2.2-12.4l-5-2.8l-0.2,0.4l0.4,0.2
			c0.3,0.2,0.6,0.4,0.7,0.7c0.1,0.3,0.2,0.5,0.1,0.7c0,0.2-0.3,0.8-0.7,1.6l-5.4,10c-0.4,0.7-0.6,1.1-0.7,1.2
			c-0.3,0.3-0.5,0.6-0.7,0.7c-0.2,0.1-0.5,0.2-0.8,0.2s-0.6-0.1-0.8-0.3l-0.1-0.1l-0.2,0.4l4.2,2.3L177.6,38z"/>
		<path class="st0" d="M201.8,33.4c0.1,0.2,0,0.5-0.1,0.8c-0.1,0.2-0.4,0.6-0.8,1.2l-6.8,9.6c-0.5,0.7-0.9,1.2-1.1,1.3
			c-0.3,0.2-0.5,0.3-0.7,0.3c-0.3,0-0.6-0.1-1-0.4l-0.4-0.3l-0.3,0.4l9.7,7.2l3.8-4.3l-0.3-0.2c-1.2,1.1-2.3,1.7-3.4,1.9
			c-1.1,0.2-2.2-0.1-3.2-0.9l-0.7-0.5c-0.3-0.2-0.5-0.5-0.6-0.7s-0.1-0.4,0-0.7c0.1-0.2,0.4-0.7,1-1.5l2.9-4.1
			c0.5,0.4,0.9,0.8,1,1.2c0.2,0.4,0.1,0.9,0,1.6c-0.2,0.7-0.5,1.5-1,2.4l0.3,0.2l5.4-7.7l-0.3-0.2c-0.9,1.1-1.7,1.8-2.4,2.1
			s-1.5,0.3-2.2-0.3l-0.2-0.2l4.2-6l1.2,0.9c0.9,0.6,1.4,1.1,1.6,1.5c0.4,0.6,0.6,1.2,0.5,1.9c0,0.7-0.4,1.6-0.9,2.8l0.3,0.2
			l3.1-4.3l-9.4-6.9l-0.3,0.4l0.4,0.3C201.6,32.8,201.8,33.1,201.8,33.4z"/>
		<path class="st0" d="M203.2,54.7c-0.5,0-1-0.2-1.5-0.5l-0.3,0.4l3.9,3.7l0.3-0.4c-0.3-0.3-0.5-0.5-0.6-0.7
			c-0.2-0.3-0.2-0.6-0.2-0.9c0-0.3,0.1-0.5,0.3-0.7c0.2-0.3,0.9-0.6,2.1-0.9l3.8-1l-1.1,4.3c-0.2,0.8-0.4,1.3-0.5,1.6
			c0,0.1-0.1,0.3-0.2,0.4c-0.2,0.2-0.3,0.3-0.6,0.3c-0.2,0-0.5-0.1-1-0.5l-0.3,0.4l5,4.7l0.3-0.4c-0.2-0.3-0.4-0.6-0.4-1
			s0.1-1.2,0.5-2.6l2.1-8.1l4.7-1.2c1.3-0.3,2-0.5,2.3-0.6c0.4-0.1,0.8,0,1,0c0.3,0.1,0.5,0.3,0.8,0.5l0.3-0.4l-3.8-3.5l-0.3,0.4
			c0.3,0.3,0.5,0.5,0.6,0.8c0.1,0.2,0.1,0.4,0,0.7c-0.1,0.2-0.2,0.4-0.3,0.6c-0.3,0.4-1.1,0.7-2.5,1.1l-2.6,0.7l1-3.7l0.4-1.5
			c0.1-0.1,0.2-0.3,0.3-0.4c0.2-0.2,0.4-0.3,0.6-0.3s0.5,0.1,0.8,0.4l0.3,0.2l0.3-0.4l-5.1-4.7l-0.3,0.4c0.2,0.3,0.3,0.5,0.4,0.7
			c0,0.2,0,0.5,0,0.8c0,0.2-0.2,0.8-0.5,2.1l-1.9,7.4l-4.9,1.3C204.8,54.5,203.8,54.7,203.2,54.7z"/>
		<path class="st0" d="M214.7,65.5c-0.3,0.1-0.5,0.2-0.7,0.1c-0.3-0.1-0.6-0.2-0.9-0.5l-0.3-0.4l-0.4,0.3l4.9,5.5l0.4-0.3l-0.3-0.4
			c-0.3-0.3-0.4-0.6-0.4-0.9s0-0.5,0.1-0.8c0.1-0.2,0.5-0.6,1.2-1.2l8.7-8c0.7-0.6,1.1-1,1.3-1c0.3-0.1,0.5-0.2,0.8-0.1
			c0.3,0.1,0.6,0.2,0.9,0.6l0.3,0.4l0.4-0.3l-4.9-5.5l-0.4,0.3l0.3,0.4c0.3,0.3,0.4,0.6,0.4,0.9c0,0.3,0,0.5-0.1,0.8
			c-0.1,0.2-0.5,0.6-1.2,1.2l-8.7,8C215.4,65,214.9,65.4,214.7,65.5z"/>
		<path class="st0" d="M224.1,66.3c-1.3,1-2.3,2.2-3,3.6s-1.1,2.8-1,4.2c0.1,1.4,0.6,2.7,1.5,3.9c0.7,0.9,1.5,1.6,2.4,2
			s2,0.6,3.3,0.6l1.2-1c-1.4,0.1-2.6,0-3.4-0.3c-0.8-0.3-1.5-0.8-2-1.5c-0.7-0.9-0.9-1.8-0.8-2.7c0.1-1,0.6-2,1.4-3
			c0.8-1.1,1.9-2.1,3.1-3.1c1.3-1,2.6-1.7,3.9-2.2c1-0.4,2-0.5,2.9-0.3s1.7,0.6,2.2,1.3c0.6,0.8,0.9,1.9,0.7,3
			c-0.2,1.2-0.8,2.4-1.9,3.6l0.2,0.3l4.9-3.8l-0.2-0.3c-0.4,0.2-0.7,0.4-1,0.4s-0.5-0.1-0.6-0.3c-0.1-0.1-0.2-0.6-0.4-1.3
			c-0.2-1.2-0.7-2.2-1.2-3c-0.8-1.1-1.9-1.8-3.3-2.3c-1.4-0.4-2.9-0.5-4.5-0.1C227,64.5,225.5,65.2,224.1,66.3z"/>
		<path class="st0" d="M226.7,82.9c-0.5-0.1-0.9-0.4-1.2-0.8l-0.4,0.2l2,4.3l0.4-0.2c-0.2-0.7-0.3-1.2-0.3-1.4
			c0.1-0.4,0.3-0.7,0.8-0.9c0.3-0.2,0.8-0.3,1.4-0.4l1.8-0.2l2.1,4.5l-1.7,1.6c-0.4,0.4-0.7,0.7-0.8,0.7c-0.1,0.1-0.3,0.2-0.4,0.3
			c-0.2,0.1-0.5,0.1-0.6,0c-0.3-0.1-0.5-0.4-0.7-0.9l-0.1-0.3l-0.4,0.2l2.8,6.2l0.4-0.2c-0.1-0.4-0.1-0.8,0-1.1
			c0.2-0.4,0.8-1.2,1.9-2.2l11.1-10.9l-0.1-0.2l-14.9,1.5C228.2,83,227.2,83.1,226.7,82.9z M238.6,82.8l-4.7,4.5l-1.8-3.9
			L238.6,82.8z"/>
		<path class="st0" d="M232.8,97.6c-0.5-0.2-0.8-0.6-1-1.4l-0.5,0.1l1.4,4.8l0.5-0.1l-0.1-0.3c-0.1-0.5-0.1-0.9,0.2-1.4
			c0.2-0.5,0.8-0.8,1.8-1.1l10.8-3.4l-11.4,13.6l0.1,0.3l14.1-4.4c0.8-0.2,1.4-0.4,1.7-0.4c0.4,0,0.6,0.1,0.8,0.2
			c0.2,0.2,0.4,0.5,0.7,1l0.5-0.1l-1.3-4.5l-0.5,0.1c0.2,0.7,0.2,1.4-0.2,1.8c-0.3,0.3-0.9,0.7-2,1l-7.3,2.3l8.5-10l-1.4-4.8
			l-0.5,0.1c0.1,0.4,0.1,0.8,0.1,1c-0.1,0.3-0.3,0.6-0.7,1l-0.4,0.4l-12,3.7C233.9,97.7,233.2,97.7,232.8,97.6z"/>
		<path class="st0" d="M245.3,108.6c-2.3,0.3-4.2,1.2-5.8,2.5c-1.9,1.7-2.7,3.8-2.4,6.3c0.4,2.5,1.8,4.3,4.2,5.4
			c1.8,0.8,3.9,1,6.1,0.7c2.6-0.4,4.7-1.4,6.2-3s2.1-3.6,1.7-5.8c-0.2-2.1-1.2-3.7-3.2-4.9C250.2,108.6,247.9,108.3,245.3,108.6z
			 M254.5,114.9c0.1,0.7-0.1,1.3-0.5,2c-0.4,0.6-1.1,1.2-2.3,1.7c-1.1,0.5-2.8,0.9-5.1,1.3c-1.9,0.3-3.6,0.3-4.8,0.2
			c-1.3-0.2-2.2-0.5-2.8-1c-0.5-0.4-0.8-1-0.9-1.7c-0.2-1.1,0.2-2,1.2-2.7c1.3-1,3.5-1.8,6.5-2.2c2.5-0.4,4.5-0.4,5.9,0
			C253.4,112.8,254.3,113.6,254.5,114.9z"/>
		<path class="st0" d="M256.9,134.9c0-0.2,0.2-0.5,0.4-1c0.3-0.5,0.5-0.9,0.6-1.2c0.1-0.4,0.2-0.9,0.2-1.3c0-1.3-0.5-2.3-1.4-3.2
			c-1-0.9-2.2-1.3-3.6-1.3c-0.8,0-1.6,0.1-2.3,0.4s-1.3,0.7-1.9,1.3c-0.6,0.6-1.3,1.5-2.1,2.7c-0.6,0.9-1.1,1.5-1.4,1.9
			c-0.4,0.4-0.7,0.6-1.1,0.8c-0.4,0.2-0.8,0.2-1.2,0.2c-0.7,0-1.3-0.3-1.8-0.7c-0.5-0.5-0.8-1.1-0.8-1.9c0-1,0.5-1.9,1.5-2.8
			c1-0.9,2.4-1.4,4.3-1.7v-0.4l-6.7-0.1v0.4c0.4,0.1,0.6,0.3,0.8,0.5s0.3,0.4,0.2,0.6c0,0.2-0.1,0.5-0.3,0.8
			c-0.3,0.6-0.5,1.1-0.7,1.5c-0.1,0.4-0.2,0.8-0.2,1.3c0,1.4,0.5,2.6,1.5,3.5s2.3,1.4,3.8,1.5c1.2,0,2.2-0.2,3.1-0.8
			c0.9-0.6,1.9-1.7,3-3.3c0.8-1.2,1.3-1.9,1.6-2.2c0.4-0.4,0.8-0.8,1.2-0.9c0.3-0.1,0.7-0.2,1-0.2c0.6,0,1.2,0.2,1.6,0.7
			c0.5,0.4,0.7,1,0.7,1.7c0,0.9-0.5,1.8-1.4,2.5c-0.9,0.8-2.1,1.2-3.6,1.4v0.4h5.9v-0.3c-0.5-0.1-0.9-0.2-1-0.3
			C256.9,135.2,256.9,135.1,256.9,134.9z"/>
	</g>
	<g>
		<g>
			<path class="st1" d="M308.9,205.2c7.3,1.8,11.2,4.4,11.2,10.2c0,6.6-5.1,10.4-12.4,10.4c-5.3,0-10.3-1.8-14.5-5.6l3.7-4.4
				c3.3,2.9,6.7,4.5,11,4.5c3.8,0,6.2-1.7,6.2-4.4c0-2.5-1.4-3.9-7.8-5.4c-7.4-1.8-11.6-4-11.6-10.4c0-6.1,5-10.1,11.9-10.1
				c5.1,0,9.1,1.5,12.6,4.4l-3.3,4.6c-3.1-2.3-6.3-3.6-9.4-3.6c-3.6,0-5.7,1.8-5.7,4.2C300.7,202.5,302.3,203.7,308.9,205.2z"/>
			<path class="st1" d="M354.1,196.1h-19.7v9h17.4v5.5h-17.4v9.3h19.9v5.5h-26v-34.8h25.8L354.1,196.1L354.1,196.1z"/>
			<path class="st1" d="M378.7,226c-10.1,0-17.7-7.9-17.7-17.9c0-9.9,7.4-18,17.9-18c6.4,0,10.3,2.2,13.6,5.4l-3.9,4.5
				c-2.8-2.6-5.8-4.3-9.7-4.3c-6.7,0-11.5,5.5-11.5,12.3s4.8,12.4,11.5,12.4c4.3,0,7-1.7,10-4.5l3.9,4
				C389.2,223.6,385.2,226,378.7,226z"/>
			<path class="st1" d="M422.5,225.4l-8.5-12.1h-7.6v12.1h-6.1v-34.8h15.5c8,0,12.9,4.2,12.9,11c0,5.8-3.4,9.2-8.3,10.6l9.4,13.2
				H422.5z M415.2,196.2h-8.9v11.7h8.9c4.4,0,7.1-2.3,7.1-5.9C422.4,198.2,419.7,196.2,415.2,196.2z"/>
			<path class="st1" d="M462.9,196.1h-19.7v9h17.4v5.5h-17.4v9.3h19.9v5.5h-26v-34.8h25.8L462.9,196.1L462.9,196.1z"/>
			<path class="st1" d="M486,225.4h-6.2v-29.1h-11v-5.7H497v5.7h-11V225.4z"/>
			<path class="st1" d="M533.3,225.4h-6.5l-3.5-8.4h-16.4l-3.6,8.4H497l15.3-35h5.7L533.3,225.4z M515.1,197.7l-6,13.9h12
				L515.1,197.7z"/>
			<path class="st1" d="M562.5,225.4l-8.5-12.1h-7.6v12.1h-6.1v-34.8h15.5c8,0,12.9,4.2,12.9,11c0,5.8-3.4,9.2-8.3,10.6l9.4,13.2
				H562.5z M555.2,196.2h-8.9v11.7h8.9c4.4,0,7.2-2.3,7.2-5.9C562.4,198.2,559.8,196.2,555.2,196.2z"/>
			<path class="st1" d="M583.6,190.6v34.8h-6.1v-34.8H583.6z M578,187.8l5.3-8.1l5.5,2.4l-6.1,5.7L578,187.8L578,187.8z"/>
			<path class="st1" d="M627.1,225.4h-6.5l-3.5-8.4h-16.4l-3.6,8.4h-6.3l15.3-35h5.7L627.1,225.4z M608.9,197.7l-6,13.9h12
				L608.9,197.7z"/>
			<path class="st1" d="M662.9,225.4h-13v-34.8h13c10.9,0,18.5,7.5,18.5,17.3S673.9,225.4,662.9,225.4z M662.9,196.2H656v23.6h6.9
				c7.3,0,12.1-4.9,12.1-11.8C675,201.2,670.2,196.2,662.9,196.2z"/>
			<path class="st1" d="M715.6,196.1h-19.7v9h17.4v5.5h-17.4v9.3h19.9v5.5h-26v-34.8h25.8V196.1z"/>
			<path class="st1" d="M754.6,225.4h-6.2v-29.1h-11v-5.7h28.2v5.7h-11V225.4z"/>
			<path class="st1" d="M802.3,210.4c0,10.4-5.9,15.6-14.9,15.6s-14.8-5.2-14.8-15.3v-20h6.1v19.8c0,6.5,3.3,9.9,8.8,9.9
				c5.4,0,8.7-3.3,8.7-9.7v-20h6.1L802.3,210.4L802.3,210.4z"/>
			<path class="st1" d="M834,225.4l-8.5-12.1h-7.6v12.1h-6.1v-34.8h15.5c8,0,12.9,4.2,12.9,11c0,5.8-3.4,9.2-8.3,10.6l9.4,13.2H834z
				 M826.7,196.2h-8.9v11.7h8.9c4.4,0,7.1-2.3,7.1-5.9C833.9,198.2,831.2,196.2,826.7,196.2z"/>
			<path class="st1" d="M855,190.6v34.8h-6.1v-34.8H855z"/>
			<path class="st1" d="M878.7,205.2c7.3,1.8,11.2,4.4,11.2,10.2c0,6.6-5.1,10.4-12.4,10.4c-5.3,0-10.3-1.8-14.5-5.6l3.7-4.4
				c3.3,2.9,6.7,4.5,11,4.5c3.8,0,6.2-1.7,6.2-4.4c0-2.5-1.4-3.9-7.8-5.4c-7.4-1.8-11.6-4-11.6-10.4c0-6.1,5-10.1,11.9-10.1
				c5.1,0,9.1,1.5,12.6,4.4l-3.3,4.6c-3.1-2.3-6.3-3.6-9.4-3.6c-3.6,0-5.7,1.8-5.7,4.2C870.5,202.5,872.1,203.7,878.7,205.2z"/>
			<path class="st1" d="M915.2,216.9H915l-10.9-16.3v24.8h-6v-34.8h6.5l10.6,16.4l10.6-16.4h6.5v34.8h-6.1v-24.9L915.2,216.9z"/>
			<path class="st1" d="M958.8,226c-10.7,0-18.1-8.1-18.1-17.9c0-9.8,7.5-18,18.2-18S977,198.2,977,208S969.4,226,958.8,226z
				 M958.8,195.7c-6.9,0-11.7,5.5-11.7,12.3s4.9,12.4,11.8,12.4c6.9,0,11.7-5.5,11.7-12.3C970.6,201.3,965.7,195.7,958.8,195.7z"/>
		</g>
	</g>
</g>
<g>
	<path class="st2" d="M580.7,88.3c0-14.2,0.2-28.5-0.5-42.7c-0.3-5.7-0.7-6.5-6.1-8.3c-2.6-0.9-5.2-1.7-7.8-2.3
		c-1.9-0.5-2.7-1.1-2.2-3.3c1.4-6.5,1.3-6.6,8-6.5c16.6,0.2,33.2-0.5,49.8-0.8c9.8-0.2,19.5,0.2,28.9,3.5
		c11.5,4,19.6,11.3,21.9,23.7c2.5,13.4-2,24.3-12.5,32.8c-2.3,1.9-4.7,3.7-7.4,5c-1.5,0.7-2,1.7-1.1,3.3c7,13.5,14.2,26.8,21.9,39.9
		c1.4,2.4,3.2,3.7,5.8,4.4c2.5,0.7,5,1.6,7.5,2.4c1.7,0.5,2.1,1.5,1.9,3.2c-1,6.6-0.9,6.6-7.6,6.7c-7.5,0.2-15,0.3-22.5,0.5
		c-2,0.1-3.1-0.7-3.9-2.5c-7.4-15.8-15.3-31.3-23.3-46.7c-1.1-2.1-2.3-3.1-4.8-3c-6.6,0.2-13.1,0.1-19.7,0c-2.3,0-3.2,0.8-3.1,3.1
		c0.2,9.5,0.3,18.9,0.5,28.4c0.1,5,1.1,6.3,5.9,7.9c2.7,0.9,5.5,1.8,8.3,2.5c1.7,0.4,2.3,1.2,1.9,3c-1.8,7.3-0.5,6.7-8.3,6.6
		c-14.3,0-28.5-0.1-42.8,0.1c-2.9,0-4.1-1.1-4.5-3.6c-1.1-6.4-1.9-5.1,3.9-6.8c2.5-0.8,5-1.6,7.6-2.1c2.9-0.6,3.9-2.2,3.9-5.1
		c0.1-11.5,0.4-23.1,0.6-34.6C580.8,94.1,580.7,91.2,580.7,88.3z M628.4,84.4c0.7,0,1.8-0.1,2.8,0c4,0.7,7-1.1,9.7-3.9
		c7.2-7.6,9.5-16.7,7.8-26.7c-1.7-10-6.1-13.9-15.9-15.8c-8.5-1.7-17-0.8-25.4,0.3c-2.2,0.3-2.6,1.7-2.7,3.6c-0.8,13-0.6,26-0.7,39
		c0,1.7,0.5,2.5,2.4,2.6C613.5,83.7,620.8,84,628.4,84.4z"/>
	<path class="st2" d="M514.3,73.8c-0.2-10.1,0.3-20.5-0.5-30.9c-0.2-2.6-1.3-4.1-3.8-4.8c-3.7-1-7.4-2.2-11.1-3.2
		c-1.8-0.5-2.6-1.3-2.2-3.2c1.7-7.9,0.9-6.5,7.4-6.6c13-0.1,26.1,0.1,39.1-0.1c2.8,0,3.9,1.1,4.3,3.6c1,6.4,2.5,5-4.3,7
		c-2.8,0.8-5.6,1.8-8.4,2.3c-2.3,0.5-2.9,1.5-3,3.8C531,60.8,531,79.7,531,98.6c0,9.2-1.4,18.1-5.2,26.6
		c-6.1,13.7-16.9,21.8-31.2,25c-12.7,2.9-25.6,2.7-38-1.9c-13.9-5.1-21.9-15.8-26.1-29.6c-2.7-9-3.3-18.2-3.4-27.5
		c-0.2-13.7-0.2-27.4-0.3-41.1c0-1.6-0.4-3.2-0.4-4.8c0.2-4.8-2.3-7.2-6.6-8.4c-2.4-0.7-4.8-1.5-7.3-2.2c-1.7-0.4-2.3-1.3-1.9-3
		c1.7-7,0.2-6.7,7.9-6.7c14.4,0,28.9,0,43.3,0c4.3,0,4.3,0,5.3,4.3c0.2,0.7,0.3,1.5,0.5,2.2c0.5,1.8-0.2,2.8-2,3.3
		c-3.4,0.9-6.8,2.1-10.3,2.8c-2.8,0.6-3.6,2.1-3.6,4.7c-0.2,7.4-0.7,14.8-0.8,22.2c-0.1,10.8-0.1,21.6,0,32.4
		c0.1,6.4,1,12.7,2.9,18.8c3.5,11,10.9,17.7,22.3,19.7c8.6,1.5,17,0.5,25-3.2c6.7-3.2,10.3-8.2,11.4-15.7
		C514.6,102.4,514.1,88.2,514.3,73.8z"/>
	<path class="st2" d="M777.5,127c0.1-3.5-0.1-7.5,0.4-11.5c0.2-1.8,0.9-2.7,2.8-2.8c3.5-0.1,6.9-0.3,10.4-0.5c1.9-0.1,2.7,0.9,3,2.6
		c0.8,4.8,2.1,9.5,3.2,14.2c0.5,2.2,1.6,3.5,3.5,4.3c8.5,3.8,17.5,4.7,26.7,4c3.3-0.2,6.5-0.9,9.6-1.9c2.7-0.8,4.2-2.6,5.3-5
		c4.7-10.3,1.9-18.9-7.7-24.8c-8-4.9-16.9-7.6-25.4-11.1c-7-2.8-13.6-6.2-19.5-11c-13.6-11.1-15.1-31.7-3.5-44.9
		c7.3-8.3,16.5-12.8,27.1-14.8c15.8-3.1,31.1-1,45.9,5.3c6.3,2.7,8.1,7,6.4,13.5c-1.6,6.1-2.5,12.3-3.5,18.5c-0.4,2.2-1.5,3-3.6,2.9
		c-2.9-0.2-5.8-0.3-8.7-0.4c-2-0.1-2.9-1.1-3.1-3.2c-0.6-5.4-1.4-10.8-2.1-16.1c-0.2-1.9-1.3-3-3-3.7c-10.5-4.4-21.1-4.7-31.8-0.7
		c-5.7,2.1-6.8,7.1-7.6,12.2c-1.1,7.5,2,13.4,8,17.7c7.8,5.6,16.9,8.8,25.7,12.4c8.3,3.4,16.6,6.9,23.2,13.4
		c13.6,13.2,12.1,35.1-3.1,46.5c-8.2,6.1-17.5,8.8-27.5,9.5c-16.6,1.2-32.4-2-47.5-8.9c-2.7-1.2-3.9-2.8-3.8-5.8
		C777.6,133.7,777.5,130.6,777.5,127z"/>
	<path class="st2" d="M731.4,25.1c7.7,0,15.4,0.1,23.1,0c2.5,0,3.7,0.7,4.3,3.3c1.2,5.7,1.4,5.7-4.1,7.3c-2.6,0.8-5.2,1.7-7.8,2.2
		c-2.5,0.5-3.1,1.8-3.2,4.1c-0.1,7.1-0.3,14.2-0.6,21.4c-0.4,13.1-0.4,26.2-0.2,39.4c0.1,9.4,0.1,18.7,0.7,28.1
		c0.2,3.1,1.5,4.9,4.4,5.8c3,1,6,2,9.1,2.9c2,0.5,2.8,1.3,2.3,3.6c-1.3,6.2-1.2,6.2-7.5,6.2c-14.4,0-28.9,0-43.3,0
		c-1.4,0-3.3,0.4-3.8-1.1c-0.8-2.3-1.8-4.8-1.3-7.3c0.2-1.1,1.6-1.2,2.6-1.5c3.4-1,6.8-2,10.3-2.9c2-0.5,2.7-1.6,2.7-3.6
		c0.2-8.6,0.7-17.2,0.7-25.9c0.1-18.9-0.1-37.9-0.2-56.8c0-2.1-0.5-4.1-0.4-6.2c0.1-3.8-2-5.6-5.3-6.6c-2.9-0.9-5.7-1.8-8.6-2.5
		c-1.7-0.4-2.4-1.3-2-3c0-0.2,0.1-0.4,0.1-0.6c1.6-6.4,0-6.2,7.5-6.2C717.7,25.1,724.5,25.1,731.4,25.1z"/>
	<path class="st2" d="M1028.3,148.6c-8,0-15.9,0-23.9,0c-3,0-3.6-1-4.3-5.5c-0.4-2.7,1.4-2.9,3.1-3.4c4.1-1,8.2-2.1,12.2-3
		c2-0.5,2.7-1.6,2.6-3.6c-0.7-11.4-1.3-22.8-1.9-34.2c-0.4-7.3-1-14.6-1.3-21.9c-0.5-9.4-0.8-18.9-1.3-28.3c0-0.8,0.4-2-0.7-2.1
		c-0.8-0.1-1.3,0.9-1.6,1.7c-7.9,18.9-15.7,37.9-23.6,56.8c-3.9,9.2-7.8,18.4-11.7,27.7c-0.6,1.5-1.6,2.2-3.3,2.5
		c-4.5,0.5-8.9,0.6-13.4-0.1c-1.5-0.2-2.4-0.8-2.9-2.2c-7.5-17.9-15-35.7-22.6-53.6c-4.4-10.3-9-20.6-13.5-30.9
		c-0.3-0.8-0.6-1.8-1.7-1.5c-1,0.2-1.1,1.2-1.1,2.1c-0.2,4.3-0.2,8.6-0.5,12.9c-0.7,9.9-0.9,19.8-1.3,29.7c-0.5,11.5-1,23-1.4,34.5
		c-0.1,2.1,0.1,4.3,0.4,6.4c0.2,2,1.7,3.1,3.3,3.9c3.3,1.6,6.9,2.3,10.4,3.1c1.5,0.3,3.6,0.2,4.1,1.9c0.6,2.2-0.2,4.4-1.1,6.5
		c-0.4,0.9-1.5,0.7-2.3,0.7c-14.8,0-29.6-0.1-44.4,0c-2.7,0-2.6-1.8-3.1-3.5c-1-4.1-0.7-4.7,3.3-5.7c3.1-0.8,6.1-1.7,9.2-2.5
		c1.8-0.5,3-1.3,3.1-3.4c0.5-5.6,1.1-11.2,1.5-16.8c1.1-14.4,2.2-28.7,3.2-43.1c0.4-5.4,0.5-10.9,0.7-16.3c0.1-4.7,0.9-9.3,0.1-14
		c-0.4-2.3-1.1-4-3.4-5c-3.4-1.5-6.9-2.9-10.5-4c-1.7-0.5-2.2-1.3-1.7-3.1c1.6-6.4,0-5.6,7.2-5.6c13,0,26.1,0.1,39.1-0.1
		c2.6,0,3.8,0.8,4.7,3.3c9.3,25.7,19.5,51.1,30.5,76.1c0.4,0.8,0.7,2.1,1.7,2c0.9-0.1,1.2-1.3,1.6-2.1c6.7-16.3,13.6-32.5,20.2-48.8
		c3.8-9.3,7.2-18.7,10.7-28.1c0.6-1.5,1.4-2.2,3.1-2.2c13.9,0,27.8,0,41.6,0c1.7,0,2.4,0.6,2.8,2.3c1.4,5.8,1.5,5.8-4.2,7.7
		c-3,1-6,2.1-9.1,3c-1.6,0.5-2.2,1.4-2.2,3.1c0.2,10.8,1.1,21.5,1.7,32.2c0.4,7,0.8,14,1.2,21c0.7,11.2,1.1,22.4,2.8,33.5
		c0.7,4.4,2.6,7.7,7.2,9.1c2.5,0.7,5,1.7,7.5,2.4c1.4,0.4,2,1.3,1.6,2.7c-0.1,0.2-0.1,0.4-0.2,0.5c-1.2,5.2-1.2,5.2-6.7,5.2
		C1042.8,148.6,1035.5,148.6,1028.3,148.6z"/>
	<path class="st2" d="M334.6,26.1c15.1,0,30.2,0,45.3,0c3.3,0,6.5-0.4,9.8-0.5c3.4-0.1,5.3,1.4,6.4,4.6c0.7,2.1,0.7,4.3,0.2,6.4
		c-1.2,6-1.5,12-2,18c-0.4,4.9-0.5,5.4-5.3,5.3c-6.5,0-7.3,1-9-7.2c-0.9-4.6-1.4-9.4-3.1-13.9c-0.4-1.2-1-2-2.3-2.1
		c-7.5-0.8-15-0.6-22.4-0.6c-2,0-3,1.3-3,3.3c0,3.8,0,7.7,0,11.5c0,17,0.1,33.9,0,50.9c0,10,0.5,20,1.1,30c0.2,2.8,2,4.4,4.3,5.4
		c2.6,1.1,5.3,1.6,7.9,2.5c1.5,0.6,3.6,0.7,3.5,3.2c-0.1,2.3-2,4.8-4.1,5.1c-0.4,0.1-0.7,0-1.1,0c-14.7,0-29.4,0-44.2,0
		c-3,0-5.8-4.1-4.4-6.6c0.5-0.8,1.8-1.3,2.8-1.7c3-0.9,6.1-1.6,9.1-2.5c2.6-0.7,3.5-2.5,3.6-5.2c1-22.8,0.3-45.5,0.5-68.3
		c0.1-8-0.1-15.9,0.1-23.9c0-2.4-0.4-3.9-3.3-4c-5.5-0.2-11,0.7-16.5,0.3c-5.9-0.4-7.3,3.1-8.2,7.7c-0.9,4.5-2,8.9-3.1,13.3
		c-0.5,2-1.4,3-3.7,2.7c-2.3-0.3-4.6,0-7,0c-2.4-0.1-3.4-1.4-3.4-3.8c0.1-4.4,0-8.8,0-13.2c0-4.2,0-8.4,0-12.6
		c0-3.6,0.6-4.3,4.2-4.3c14,0,27.9,0,41.9,0C331.2,26.1,332.9,26.1,334.6,26.1C334.6,26.1,334.6,26.1,334.6,26.1z"/>
	<path class="st2" d="M1187,81.7c0,16.6-3,30.1-10.6,42.2c-9.1,14.6-22.3,23.6-39.5,26.5c-11.3,1.9-22.3,1.3-32.9-2.5
		c-17.4-6.3-29.2-18.4-34.1-36.4c-5.3-19.8-4-39.2,5.7-57.5c8.4-15.9,21.8-25.6,39.4-29.3c12.5-2.7,24.7-2.3,36.7,2.2
		c14.6,5.4,24.5,15.5,30.2,29.8C1185.4,65.4,1187.2,74.5,1187,81.7z M1163.2,87c-0.2-8.2-0.9-16.4-3.5-24.3
		c-2.1-6.7-5.2-12.9-10.9-17.4c-10.5-8.2-22.3-8.7-34.7-5.3c-8.2,2.2-14,6.9-17.1,15.1c-6.9,18.1-8.1,36.5-3.2,55.2
		c2.6,10.2,8.4,18.4,18.4,22.9c9.2,4.2,18.7,4,28.3,1.3c8-2.3,13.3-7.2,16.5-15C1161.2,108.9,1162.9,98.2,1163.2,87z"/>
</g>
</svg>
